<svg xmlns="http://www.w3.org/2000/svg" width="900" height="900" viewBox="0 0 900 900" role="img" aria-label="Best Hydration Packs guide visual">
  <defs>
    <linearGradient id="bg" x1="0" x2="1" y1="0" y2="1">
      <stop offset="0" stop-color="#ecfeff"/>
      <stop offset=".62" stop-color="#ffffff"/>
      <stop offset="1" stop-color="#22c55e" stop-opacity=".22"/>
    </linearGradient>
    <pattern id="grid" width="48" height="48" patternUnits="userSpaceOnUse">
      <path d="M48 0H0v48" fill="none" stroke="#0f172a" stroke-opacity=".06" stroke-width="2"/>
    </pattern>
  </defs>
  <rect width="900" height="900" rx="72" fill="url(#bg)"/>
  <rect width="900" height="900" rx="72" fill="url(#grid)"/>
  <circle cx="170" cy="155" r="115" fill="#f59e0b" opacity=".18"/>
  <circle cx="705" cy="255" r="155" fill="#f97316" opacity=".14"/>
  <path d="M130 705c70-48 150-48 220 0" stroke="#22c55e" stroke-width="24" stroke-linecap="round" opacity=".34" fill="none"/>
  <path d="M550 150c44 40 92 40 136 0" stroke="#f59e0b" stroke-width="20" stroke-linecap="round" opacity=".38" fill="none"/>
  <circle cx="130" cy="680" r="22" fill="#22c55e" opacity=".22"/>
  <circle cx="550" cy="610" r="18" fill="#f97316" opacity=".25"/>
  <rect x="120" y="330" width="58" height="58" rx="18" fill="#fff" opacity=".48"/>
  <rect x="630" y="585" width="72" height="72" rx="24" fill="#fff" opacity=".36"/>
  <g transform="translate(0 14) rotate(5 450 450) scale(0.92) translate(35.99999999999998 35.99999999999998)">
    <path d="M315 205h110l25 125 25-125h110l78 480H510l-60-178-60 178H237l78-480Z" fill="#0f172a"/><rect x="300" y="385" width="95" height="155" rx="30" fill="#fff" opacity=".86"/><rect x="505" y="385" width="95" height="155" rx="30" fill="#22c55e" opacity=".9"/>
  </g>
</svg>
