<svg xmlns="http://www.w3.org/2000/svg" width="900" height="900" viewBox="0 0 900 900" role="img" aria-label="Best Carry-On Luggage guide visual">
  <defs>
    <linearGradient id="bg" x1="0" x2="1" y1="0" y2="1">
      <stop offset="0" stop-color="#f5f3ff"/>
      <stop offset=".62" stop-color="#ffffff"/>
      <stop offset="1" stop-color="#fb7185" stop-opacity=".22"/>
    </linearGradient>
    <pattern id="grid" width="48" height="48" patternUnits="userSpaceOnUse">
      <path d="M48 0H0v48" fill="none" stroke="#312e81" stroke-opacity=".06" stroke-width="2"/>
    </pattern>
  </defs>
  <rect width="900" height="900" rx="72" fill="url(#bg)"/>
  <rect width="900" height="900" rx="72" fill="url(#grid)"/>
  <circle cx="207" cy="232" r="115" fill="#22c55e" opacity=".18"/>
  <circle cx="648" cy="312" r="155" fill="#22c55e" opacity=".14"/>
  <path d="M257 705c70-48 150-48 220 0" stroke="#fb7185" stroke-width="24" stroke-linecap="round" opacity=".34" fill="none"/>
  <path d="M563 150c44 40 92 40 136 0" stroke="#22c55e" stroke-width="20" stroke-linecap="round" opacity=".38" fill="none"/>
  <circle cx="257" cy="687" r="23" fill="#fb7185" opacity=".22"/>
  <circle cx="563" cy="617" r="31" fill="#22c55e" opacity=".25"/>
  <rect x="197" y="337" width="58" height="58" rx="18" fill="#fff" opacity=".48"/>
  <rect x="623" y="548" width="72" height="72" rx="24" fill="#fff" opacity=".36"/>
  <g transform="translate(0 14) rotate(6 450 450) scale(0.932) translate(30.599999999999977 30.599999999999977)">
    <rect x="300" y="230" width="300" height="430" rx="52" fill="#312e81"/><path d="M385 225v-45h130v45M380 310v260M450 310v260M520 310v260" stroke="#312e81" stroke-width="18" stroke-linecap="round" stroke-linejoin="round" fill="none"/><circle cx="370" cy="705" r="30" fill="#fb7185"/><circle cx="530" cy="705" r="30" fill="#fb7185"/>
  </g>
</svg>
