<svg xmlns="http://www.w3.org/2000/svg" width="900" height="900" viewBox="0 0 900 900" role="img" aria-label="Best Running Headphones guide visual">
  <defs>
    <linearGradient id="bg" x1="0" x2="1" y1="0" y2="1">
      <stop offset="0" stop-color="#eff6ff"/>
      <stop offset=".62" stop-color="#ffffff"/>
      <stop offset="1" stop-color="#facc15" stop-opacity=".22"/>
    </linearGradient>
    <pattern id="grid" width="48" height="48" patternUnits="userSpaceOnUse">
      <path d="M48 0H0v48" fill="none" stroke="#172554" stroke-opacity=".06" stroke-width="2"/>
    </pattern>
  </defs>
  <rect width="900" height="900" rx="72" fill="url(#bg)"/>
  <rect width="900" height="900" rx="72" fill="url(#grid)"/>
  <circle cx="254" cy="199" r="115" fill="#10b981" opacity=".18"/>
  <circle cx="721" cy="239" r="155" fill="#2dd4bf" opacity=".14"/>
  <g transform="translate(0 -36)">
    <path d="M280 500v-92c0-120 76-202 170-202s170 82 170 202v92" stroke="#172554" stroke-width="18" stroke-linecap="round" stroke-linejoin="round" fill="none"/><rect x="215" y="470" width="108" height="180" rx="42" fill="#172554"/><rect x="577" y="470" width="108" height="180" rx="42" fill="#172554"/><path d="M345 660c70 42 140 42 210 0" stroke="#172554" stroke-width="18" stroke-linecap="round" stroke-linejoin="round" fill="none"/>
  </g>
  <rect x="238" y="621" width="424" height="64" rx="34" fill="#fff" opacity=".68"/>
  <text x="450" y="675" text-anchor="middle" font-size="38" font-weight="800" fill="#172554">Best Running Headphones</text>
  <text x="450" y="820" text-anchor="middle" font-size="22" font-weight="700" fill="#172554" opacity=".72">outdoor</text>
</svg>
