<svg xmlns="http://www.w3.org/2000/svg" width="900" height="900" viewBox="0 0 900 900" role="img" aria-label="Best Massage Guns guide visual">
  <defs>
    <linearGradient id="bg" x1="0" x2="1" y1="0" y2="1">
      <stop offset="0" stop-color="#f8fafc"/>
      <stop offset=".62" stop-color="#ffffff"/>
      <stop offset="1" stop-color="#38bdf8" stop-opacity=".22"/>
    </linearGradient>
    <pattern id="grid" width="48" height="48" patternUnits="userSpaceOnUse">
      <path d="M48 0H0v48" fill="none" stroke="#111827" stroke-opacity=".06" stroke-width="2"/>
    </pattern>
  </defs>
  <rect width="900" height="900" rx="72" fill="url(#bg)"/>
  <rect width="900" height="900" rx="72" fill="url(#grid)"/>
  <circle cx="235" cy="180" r="115" fill="#fb7185" opacity=".18"/>
  <circle cx="700" cy="260" r="155" fill="#facc15" opacity=".14"/>
  <path d="M195 705c70-48 150-48 220 0" stroke="#38bdf8" stroke-width="24" stroke-linecap="round" opacity=".34" fill="none"/>
  <path d="M565 150c44 40 92 40 136 0" stroke="#fb7185" stroke-width="20" stroke-linecap="round" opacity=".38" fill="none"/>
  <circle cx="195" cy="655" r="31" fill="#38bdf8" opacity=".22"/>
  <circle cx="565" cy="585" r="35" fill="#facc15" opacity=".25"/>
  <rect x="145" y="335" width="58" height="58" rx="18" fill="#fff" opacity=".48"/>
  <rect x="655" y="580" width="72" height="72" rx="24" fill="#fff" opacity=".36"/>
  <g transform="translate(0 14) rotate(-5 450 450) scale(0.9440000000000001) translate(25.19999999999997 25.19999999999997)">
    <circle cx="310" cy="315" r="98" fill="#38bdf8"/><rect x="380" y="345" width="300" height="125" rx="60" fill="#111827" transform="rotate(25 380 345)"/><rect x="470" y="445" width="112" height="245" rx="46" fill="#111827" transform="rotate(25 470 445)"/><path d="M225 520c60-35 120-35 180 0" stroke="#111827" stroke-width="18" stroke-linecap="round" stroke-linejoin="round" fill="none"/>
  </g>
</svg>
