<svg xmlns="http://www.w3.org/2000/svg" width="900" height="900" viewBox="0 0 900 900" role="img" aria-label="Best Massage Guns guide visual">
  <defs>
    <linearGradient id="bg" x1="0" x2="1" y1="0" y2="1">
      <stop offset="0" stop-color="#f8fafc"/>
      <stop offset=".62" stop-color="#ffffff"/>
      <stop offset="1" stop-color="#38bdf8" stop-opacity=".22"/>
    </linearGradient>
    <pattern id="grid" width="48" height="48" patternUnits="userSpaceOnUse">
      <path d="M48 0H0v48" fill="none" stroke="#111827" stroke-opacity=".06" stroke-width="2"/>
    </pattern>
  </defs>
  <rect width="900" height="900" rx="72" fill="url(#bg)"/>
  <rect width="900" height="900" rx="72" fill="url(#grid)"/>
  <circle cx="235" cy="180" r="115" fill="#fb7185" opacity=".18"/>
  <circle cx="700" cy="260" r="155" fill="#facc15" opacity=".14"/>
  <g transform="translate(0 -36)">
    <circle cx="310" cy="315" r="98" fill="#38bdf8"/><rect x="380" y="345" width="300" height="125" rx="60" fill="#111827" transform="rotate(25 380 345)"/><rect x="470" y="445" width="112" height="245" rx="46" fill="#111827" transform="rotate(25 470 445)"/><path d="M225 520c60-35 120-35 180 0" stroke="#111827" stroke-width="18" stroke-linecap="round" stroke-linejoin="round" fill="none"/>
  </g>
  <rect x="238" y="621" width="424" height="64" rx="34" fill="#fff" opacity=".68"/>
  <text x="450" y="675" text-anchor="middle" font-size="38" font-weight="800" fill="#111827">Best Massage Guns</text>
  <text x="450" y="820" text-anchor="middle" font-size="22" font-weight="700" fill="#111827" opacity=".72">lifestyle</text>
</svg>
