<svg xmlns="http://www.w3.org/2000/svg" width="900" height="900" viewBox="0 0 900 900" role="img" aria-label="Best Trail Running Poles guide visual">
  <defs>
    <linearGradient id="bg" x1="0" x2="1" y1="0" y2="1">
      <stop offset="0" stop-color="#f5f3ff"/>
      <stop offset=".62" stop-color="#ffffff"/>
      <stop offset="1" stop-color="#fb7185" stop-opacity=".22"/>
    </linearGradient>
    <pattern id="grid" width="48" height="48" patternUnits="userSpaceOnUse">
      <path d="M48 0H0v48" fill="none" stroke="#312e81" stroke-opacity=".06" stroke-width="2"/>
    </pattern>
  </defs>
  <rect width="900" height="900" rx="72" fill="url(#bg)"/>
  <rect width="900" height="900" rx="72" fill="url(#grid)"/>
  <circle cx="175" cy="200" r="115" fill="#22c55e" opacity=".18"/>
  <circle cx="680" cy="280" r="155" fill="#22c55e" opacity=".14"/>
  <path d="M225 705c70-48 150-48 220 0" stroke="#fb7185" stroke-width="24" stroke-linecap="round" opacity=".34" fill="none"/>
  <path d="M555 150c44 40 92 40 136 0" stroke="#22c55e" stroke-width="20" stroke-linecap="round" opacity=".38" fill="none"/>
  <circle cx="225" cy="625" r="47" fill="#fb7185" opacity=".22"/>
  <circle cx="555" cy="555" r="23" fill="#22c55e" opacity=".25"/>
  <rect x="165" y="355" width="58" height="58" rx="18" fill="#fff" opacity=".48"/>
  <rect x="685" y="580" width="72" height="72" rx="24" fill="#fff" opacity=".36"/>
  <g transform="translate(0 14) rotate(2 450 450) scale(0.9680000000000001) translate(14.399999999999963 14.399999999999963)">
    <path d="M325 165l-80 570M575 165l80 570" stroke="#312e81" stroke-width="18" stroke-linecap="round" stroke-linejoin="round" fill="none"/><path d="M280 280h90M530 280h90M230 735h120M550 735h120" stroke="#312e81" stroke-width="18" stroke-linecap="round" stroke-linejoin="round" fill="none"/><circle cx="325" cy="165" r="38" fill="#fb7185"/><circle cx="575" cy="165" r="38" fill="#fb7185"/>
  </g>
</svg>
