<svg xmlns="http://www.w3.org/2000/svg" width="900" height="900" viewBox="0 0 900 900" role="img" aria-label="Best GPS Running Watches guide visual">
  <defs>
    <linearGradient id="bg" x1="0" x2="1" y1="0" y2="1">
      <stop offset="0" stop-color="#f5f3ff"/>
      <stop offset=".62" stop-color="#ffffff"/>
      <stop offset="1" stop-color="#fb7185" stop-opacity=".22"/>
    </linearGradient>
    <pattern id="grid" width="48" height="48" patternUnits="userSpaceOnUse">
      <path d="M48 0H0v48" fill="none" stroke="#312e81" stroke-opacity=".06" stroke-width="2"/>
    </pattern>
  </defs>
  <rect width="900" height="900" rx="72" fill="url(#bg)"/>
  <rect width="900" height="900" rx="72" fill="url(#grid)"/>
  <circle cx="231" cy="216" r="115" fill="#22c55e" opacity=".18"/>
  <circle cx="724" cy="236" r="155" fill="#22c55e" opacity=".14"/>
  <path d="M161 705c70-48 150-48 220 0" stroke="#fb7185" stroke-width="24" stroke-linecap="round" opacity=".34" fill="none"/>
  <path d="M579 150c44 40 92 40 136 0" stroke="#22c55e" stroke-width="20" stroke-linecap="round" opacity=".38" fill="none"/>
  <circle cx="161" cy="621" r="39" fill="#fb7185" opacity=".22"/>
  <circle cx="579" cy="551" r="31" fill="#22c55e" opacity=".25"/>
  <rect x="181" y="311" width="58" height="58" rx="18" fill="#fff" opacity=".48"/>
  <rect x="689" y="584" width="72" height="72" rx="24" fill="#fff" opacity=".36"/>
  <g transform="translate(0 14) rotate(-6 450 450) scale(0.9560000000000001) translate(19.79999999999997 19.79999999999997)">
    <rect x="365" y="175" width="170" height="90" rx="38" fill="#fb7185" opacity=".72"/><circle cx="450" cy="450" r="118" fill="#fff" opacity=".9"/><circle cx="450" cy="450" r="80" stroke="#312e81" stroke-width="18" stroke-linecap="round" stroke-linejoin="round" fill="none"/><path d="M450 405v50l42 28" stroke="#312e81" stroke-width="18" stroke-linecap="round" stroke-linejoin="round" fill="none"/><rect x="365" y="635" width="170" height="90" rx="38" fill="#fb7185" opacity=".72"/>
  </g>
</svg>
