<svg xmlns="http://www.w3.org/2000/svg" width="900" height="900" viewBox="0 0 900 900" role="img" aria-label="Best Running Vests guide visual">
  <defs>
    <linearGradient id="bg" x1="0" x2="1" y1="0" y2="1">
      <stop offset="0" stop-color="#ecfeff"/>
      <stop offset=".62" stop-color="#ffffff"/>
      <stop offset="1" stop-color="#22c55e" stop-opacity=".22"/>
    </linearGradient>
    <pattern id="grid" width="48" height="48" patternUnits="userSpaceOnUse">
      <path d="M48 0H0v48" fill="none" stroke="#0f172a" stroke-opacity=".06" stroke-width="2"/>
    </pattern>
  </defs>
  <rect width="900" height="900" rx="72" fill="url(#bg)"/>
  <rect width="900" height="900" rx="72" fill="url(#grid)"/>
  <circle cx="178" cy="203" r="115" fill="#f59e0b" opacity=".18"/>
  <circle cx="697" cy="263" r="155" fill="#f97316" opacity=".14"/>
  <g transform="translate(0 -36)">
    <path d="M315 205h110l25 125 25-125h110l78 480H510l-60-178-60 178H237l78-480Z" fill="#0f172a"/><rect x="300" y="385" width="95" height="155" rx="30" fill="#fff" opacity=".86"/><rect x="505" y="385" width="95" height="155" rx="30" fill="#22c55e" opacity=".9"/>
  </g>
  <rect x="238" y="621" width="424" height="64" rx="34" fill="#fff" opacity=".68"/>
  <text x="450" y="675" text-anchor="middle" font-size="38" font-weight="800" fill="#0f172a">Best Running Vests</text>
  <text x="450" y="820" text-anchor="middle" font-size="22" font-weight="700" fill="#0f172a" opacity=".72">outdoor</text>
</svg>
