<svg xmlns="http://www.w3.org/2000/svg" width="900" height="900" viewBox="0 0 900 900" role="img" aria-label="Remote Work home visual">
  <defs>
    <linearGradient id="bg" x1="0" x2="1" y1="0" y2="1">
      <stop offset="0" stop-color="#f9fafb"/>
      <stop offset=".62" stop-color="#ffffff"/>
      <stop offset="1" stop-color="#a3e635" stop-opacity=".22"/>
    </linearGradient>
    <pattern id="grid" width="48" height="48" patternUnits="userSpaceOnUse">
      <path d="M48 0H0v48" fill="none" stroke="#1f2937" stroke-opacity=".06" stroke-width="2"/>
    </pattern>
  </defs>
  <rect width="900" height="900" rx="72" fill="url(#bg)"/>
  <rect width="900" height="900" rx="72" fill="url(#grid)"/>
  <circle cx="172" cy="157" r="115" fill="#14b8a6" opacity=".18"/>
  <circle cx="683" cy="277" r="155" fill="#fb7185" opacity=".14"/>
  <path d="M252 705c70-48 150-48 220 0" stroke="#a3e635" stroke-width="24" stroke-linecap="round" opacity=".34" fill="none"/>
  <path d="M658 150c44 40 92 40 136 0" stroke="#14b8a6" stroke-width="20" stroke-linecap="round" opacity=".38" fill="none"/>
  <circle cx="252" cy="652" r="32" fill="#a3e635" opacity=".22"/>
  <circle cx="658" cy="582" r="20" fill="#fb7185" opacity=".25"/>
  <rect x="122" y="352" width="58" height="58" rx="18" fill="#fff" opacity=".48"/>
  <rect x="658" y="583" width="72" height="72" rx="24" fill="#fff" opacity=".36"/>
  <g transform="translate(0 14) rotate(-1 450 450) scale(0.9560000000000001) translate(19.79999999999997 19.79999999999997)">
    <rect x="185" y="350" width="530" height="64" rx="22" fill="#1f2937"/><path d="M270 414v220M630 414v220" stroke="#1f2937" stroke-width="18" stroke-linecap="round" stroke-linejoin="round" fill="none"/><rect x="350" y="220" width="200" height="118" rx="18" fill="#fff" opacity=".9"/><path d="M395 338h110" stroke="#1f2937" stroke-width="18" stroke-linecap="round" stroke-linejoin="round" fill="none"/>
  </g>
</svg>
