<svg xmlns="http://www.w3.org/2000/svg" width="900" height="900" viewBox="0 0 900 900" role="img" aria-label="Phavai home visual">
  <defs>
    <linearGradient id="bg" x1="0" x2="1" y1="0" y2="1">
      <stop offset="0" stop-color="#f8fafc"/>
      <stop offset=".62" stop-color="#ffffff"/>
      <stop offset="1" stop-color="#38bdf8" stop-opacity=".22"/>
    </linearGradient>
    <pattern id="grid" width="48" height="48" patternUnits="userSpaceOnUse">
      <path d="M48 0H0v48" fill="none" stroke="#111827" stroke-opacity=".06" stroke-width="2"/>
    </pattern>
  </defs>
  <rect width="900" height="900" rx="72" fill="url(#bg)"/>
  <rect width="900" height="900" rx="72" fill="url(#grid)"/>
  <circle cx="235" cy="220" r="115" fill="#fb7185" opacity=".18"/>
  <circle cx="700" cy="260" r="155" fill="#facc15" opacity=".14"/>
  <path d="M165 705c70-48 150-48 220 0" stroke="#38bdf8" stroke-width="24" stroke-linecap="round" opacity=".34" fill="none"/>
  <path d="M565 150c44 40 92 40 136 0" stroke="#fb7185" stroke-width="20" stroke-linecap="round" opacity=".38" fill="none"/>
  <circle cx="165" cy="685" r="43" fill="#38bdf8" opacity=".22"/>
  <circle cx="565" cy="615" r="35" fill="#facc15" opacity=".25"/>
  <rect x="185" y="335" width="58" height="58" rx="18" fill="#fff" opacity=".48"/>
  <rect x="625" y="580" width="72" height="72" rx="24" fill="#fff" opacity=".36"/>
  <g transform="translate(0 14) rotate(4 450 450) scale(0.92) translate(35.99999999999998 35.99999999999998)">
    <rect x="230" y="230" width="310" height="390" rx="44" fill="#fff" opacity=".88"/><rect x="285" y="185" width="310" height="390" rx="44" fill="#111827"/><rect x="335" y="255" width="190" height="28" rx="14" fill="#fff" opacity=".82"/><rect x="335" y="320" width="150" height="24" rx="12" fill="#fff" opacity=".58"/><rect x="335" y="374" width="178" height="24" rx="12" fill="#fff" opacity=".58"/><path d="M352 500l58 58 145-164" stroke="#38bdf8" stroke-width="34" stroke-linecap="round" stroke-linejoin="round" fill="none"/><circle cx="610" cy="570" r="96" fill="#fff" opacity=".9"/><circle cx="610" cy="570" r="58" stroke="#111827" stroke-width="18" stroke-linecap="round" stroke-linejoin="round" fill="none"/><path d="M655 615l78 78" stroke="#111827" stroke-width="18" stroke-linecap="round" stroke-linejoin="round" fill="none"/>
  </g>
</svg>
