<svg xmlns="http://www.w3.org/2000/svg" width="900" height="900" viewBox="0 0 900 900" role="img" aria-label="Precision Hydration PH 1000 product visual">
  <defs>
    <linearGradient id="bg" x1="0" x2="1" y1="0" y2="1"><stop offset="0" stop-color="#fafafa"/><stop offset=".62" stop-color="#ffffff"/><stop offset="1" stop-color="#2563eb" stop-opacity=".2"/></linearGradient>
    <pattern id="grid" width="48" height="48" patternUnits="userSpaceOnUse"><path d="M48 0H0v48" fill="none" stroke="#3f3f46" stroke-opacity=".06" stroke-width="2"/></pattern>
  </defs>
  <rect width="900" height="900" rx="72" fill="url(#bg)"/>
  <rect width="900" height="900" rx="72" fill="url(#grid)"/>
  <circle cx="243" cy="203" r="115" fill="#16a34a" opacity=".16"/>
  <circle cx="617" cy="313" r="155" fill="#2563eb" opacity=".13"/>
  <path d="M285 716c70-44 154-44 226 0" stroke="#2563eb" stroke-width="24" stroke-linecap="round" opacity=".28" fill="none"/>
  <g transform="translate(0 12) rotate(1 450 450) scale(.94) translate(27 27)"><path d="M300 185h300l54 110v395H246V295l54-110Z" fill="#3f3f46"/><path d="M300 185h300M300 690h300M330 345h240M345 430h210M370 520h160" stroke="#3f3f46" stroke-width="18" stroke-linecap="round" stroke-linejoin="round" fill="none"/><circle cx="450" cy="585" r="44" fill="#2563eb"/></g>
</svg>
