<svg xmlns="http://www.w3.org/2000/svg" width="900" height="900" viewBox="0 0 900 900" role="img" aria-label="Ninja 12-Cup Programmable Brewer product visual">
  <defs>
    <linearGradient id="bg" x1="0" x2="1" y1="0" y2="1">
      <stop offset="0" stop-color="#fff7ed"/>
      <stop offset=".62" stop-color="#ffffff"/>
      <stop offset="1" stop-color="#f97316" stop-opacity=".22"/>
    </linearGradient>
    <pattern id="grid" width="48" height="48" patternUnits="userSpaceOnUse">
      <path d="M48 0H0v48" fill="none" stroke="#18181b" stroke-opacity=".06" stroke-width="2"/>
    </pattern>
  </defs>
  <rect width="900" height="900" rx="72" fill="url(#bg)"/>
  <rect width="900" height="900" rx="72" fill="url(#grid)"/>
  <circle cx="173" cy="158" r="115" fill="#2563eb" opacity=".18"/>
  <circle cx="722" cy="238" r="155" fill="#60a5fa" opacity=".14"/>
  <g transform="translate(0 -36)">
    <rect x="285" y="285" width="285" height="330" rx="48" fill="#18181b"/><path d="M570 385h40c58 0 58 112 0 112h-40M340 220c-28-42 28-60 0-102M435 220c-28-42 28-60 0-102M515 220c-28-42 28-60 0-102" stroke="#18181b" stroke-width="18" stroke-linecap="round" stroke-linejoin="round" fill="none"/><rect x="315" y="620" width="230" height="48" rx="20" fill="#f97316"/>
  </g>
  <rect x="238" y="651" width="424" height="106" rx="34" fill="#fff" opacity=".68"/>
  <text x="450" y="705" text-anchor="middle" font-size="38" font-weight="800" fill="#18181b">Ninja 12-Cup</text><text x="450" y="747" text-anchor="middle" font-size="38" font-weight="800" fill="#18181b">Programmable Brewer</text>
  <text x="450" y="820" text-anchor="middle" font-size="22" font-weight="700" fill="#18181b" opacity=".72">Best Coffee Makers</text>
</svg>
