<svg xmlns="http://www.w3.org/2000/svg" width="900" height="900" viewBox="0 0 900 900" role="img" aria-label="Garmin Forerunner 965 product visual">
  <defs>
    <linearGradient id="bg" x1="0" x2="1" y1="0" y2="1">
      <stop offset="0" stop-color="#ecfdf5"/>
      <stop offset=".62" stop-color="#ffffff"/>
      <stop offset="1" stop-color="#60a5fa" stop-opacity=".22"/>
    </linearGradient>
    <pattern id="grid" width="48" height="48" patternUnits="userSpaceOnUse">
      <path d="M48 0H0v48" fill="none" stroke="#064e3b" stroke-opacity=".06" stroke-width="2"/>
    </pattern>
  </defs>
  <rect width="900" height="900" rx="72" fill="url(#bg)"/>
  <rect width="900" height="900" rx="72" fill="url(#grid)"/>
  <circle cx="248" cy="233" r="115" fill="#f97316" opacity=".18"/>
  <circle cx="687" cy="273" r="155" fill="#38bdf8" opacity=".14"/>
  <path d="M238 705c70-48 150-48 220 0" stroke="#60a5fa" stroke-width="24" stroke-linecap="round" opacity=".34" fill="none"/>
  <path d="M522 150c44 40 92 40 136 0" stroke="#f97316" stroke-width="20" stroke-linecap="round" opacity=".38" fill="none"/>
  <circle cx="238" cy="668" r="32" fill="#60a5fa" opacity=".22"/>
  <circle cx="522" cy="598" r="24" fill="#38bdf8" opacity=".25"/>
  <rect x="198" y="348" width="58" height="58" rx="18" fill="#fff" opacity=".48"/>
  <rect x="642" y="567" width="72" height="72" rx="24" fill="#fff" opacity=".36"/>
  <g transform="translate(0 14) rotate(3 450 450) scale(0.9560000000000001) translate(19.79999999999997 19.79999999999997)">
    <rect x="365" y="175" width="170" height="90" rx="38" fill="#60a5fa" opacity=".72"/><circle cx="450" cy="450" r="118" fill="#fff" opacity=".9"/><circle cx="450" cy="450" r="80" stroke="#064e3b" stroke-width="18" stroke-linecap="round" stroke-linejoin="round" fill="none"/><path d="M450 405v50l42 28" stroke="#064e3b" stroke-width="18" stroke-linecap="round" stroke-linejoin="round" fill="none"/><rect x="365" y="635" width="170" height="90" rx="38" fill="#60a5fa" opacity=".72"/>
  </g>
</svg>
