<svg xmlns="http://www.w3.org/2000/svg" width="900" height="900" viewBox="0 0 900 900" role="img" aria-label="Logitech Ergo K860 product visual">
  <defs>
    <linearGradient id="bg" x1="0" x2="1" y1="0" y2="1">
      <stop offset="0" stop-color="#ecfeff"/>
      <stop offset=".62" stop-color="#ffffff"/>
      <stop offset="1" stop-color="#22c55e" stop-opacity=".22"/>
    </linearGradient>
    <pattern id="grid" width="48" height="48" patternUnits="userSpaceOnUse">
      <path d="M48 0H0v48" fill="none" stroke="#0f172a" stroke-opacity=".06" stroke-width="2"/>
    </pattern>
  </defs>
  <rect width="900" height="900" rx="72" fill="url(#bg)"/>
  <rect width="900" height="900" rx="72" fill="url(#grid)"/>
  <circle cx="266" cy="171" r="115" fill="#f59e0b" opacity=".18"/>
  <circle cx="649" cy="311" r="155" fill="#f97316" opacity=".14"/>
  <path d="M256 705c70-48 150-48 220 0" stroke="#22c55e" stroke-width="24" stroke-linecap="round" opacity=".34" fill="none"/>
  <path d="M604 150c44 40 92 40 136 0" stroke="#f59e0b" stroke-width="20" stroke-linecap="round" opacity=".38" fill="none"/>
  <circle cx="256" cy="626" r="22" fill="#22c55e" opacity=".22"/>
  <circle cx="604" cy="556" r="18" fill="#f97316" opacity=".25"/>
  <rect x="136" y="336" width="58" height="58" rx="18" fill="#fff" opacity=".48"/>
  <rect x="684" y="549" width="72" height="72" rx="24" fill="#fff" opacity=".36"/>
  <g transform="translate(0 14) rotate(4 450 450) scale(0.92) translate(35.99999999999998 35.99999999999998)">
    <rect x="165" y="320" width="570" height="260" rx="42" fill="#0f172a"/><g fill="#fff" opacity=".9"><rect x="210" y="365" width="48" height="32" rx="8"/><rect x="290" y="365" width="48" height="32" rx="8"/><rect x="370" y="365" width="48" height="32" rx="8"/><rect x="450" y="365" width="48" height="32" rx="8"/><rect x="530" y="365" width="48" height="32" rx="8"/><rect x="610" y="365" width="48" height="32" rx="8"/><rect x="210" y="423" width="48" height="32" rx="8"/><rect x="290" y="423" width="48" height="32" rx="8"/><rect x="370" y="423" width="48" height="32" rx="8"/><rect x="450" y="423" width="48" height="32" rx="8"/><rect x="530" y="423" width="48" height="32" rx="8"/><rect x="610" y="423" width="48" height="32" rx="8"/><rect x="210" y="481" width="48" height="32" rx="8"/><rect x="290" y="481" width="48" height="32" rx="8"/><rect x="370" y="481" width="48" height="32" rx="8"/><rect x="450" y="481" width="48" height="32" rx="8"/><rect x="530" y="481" width="48" height="32" rx="8"/><rect x="610" y="481" width="48" height="32" rx="8"/></g><rect x="290" y="548" width="320" height="34" rx="12" fill="#22c55e"/>
  </g>
</svg>
