<svg xmlns="http://www.w3.org/2000/svg" width="900" height="900" viewBox="0 0 900 900" role="img" aria-label="Gossamer Gear LT5 product visual">
  <defs>
    <linearGradient id="bg" x1="0" x2="1" y1="0" y2="1">
      <stop offset="0" stop-color="#fafafa"/>
      <stop offset=".62" stop-color="#ffffff"/>
      <stop offset="1" stop-color="#2dd4bf" stop-opacity=".22"/>
    </linearGradient>
    <pattern id="grid" width="48" height="48" patternUnits="userSpaceOnUse">
      <path d="M48 0H0v48" fill="none" stroke="#3f3f46" stroke-opacity=".06" stroke-width="2"/>
    </pattern>
  </defs>
  <rect width="900" height="900" rx="72" fill="url(#bg)"/>
  <rect width="900" height="900" rx="72" fill="url(#grid)"/>
  <circle cx="225" cy="170" r="115" fill="#a855f7" opacity=".18"/>
  <circle cx="690" cy="270" r="155" fill="#a3e635" opacity=".14"/>
  <path d="M305 705c70-48 150-48 220 0" stroke="#2dd4bf" stroke-width="24" stroke-linecap="round" opacity=".34" fill="none"/>
  <path d="M645 150c44 40 92 40 136 0" stroke="#a855f7" stroke-width="20" stroke-linecap="round" opacity=".38" fill="none"/>
  <circle cx="305" cy="705" r="29" fill="#2dd4bf" opacity=".22"/>
  <circle cx="645" cy="635" r="25" fill="#a3e635" opacity=".25"/>
  <rect x="135" y="345" width="58" height="58" rx="18" fill="#fff" opacity=".48"/>
  <rect x="605" y="530" width="72" height="72" rx="24" fill="#fff" opacity=".36"/>
  <g transform="translate(0 14) rotate(-5 450 450) scale(0.92) translate(35.99999999999998 35.99999999999998)">
    <path d="M325 165l-80 570M575 165l80 570" stroke="#3f3f46" stroke-width="18" stroke-linecap="round" stroke-linejoin="round" fill="none"/><path d="M280 280h90M530 280h90M230 735h120M550 735h120" stroke="#3f3f46" stroke-width="18" stroke-linecap="round" stroke-linejoin="round" fill="none"/><circle cx="325" cy="165" r="38" fill="#2dd4bf"/><circle cx="575" cy="165" r="38" fill="#2dd4bf"/>
  </g>
</svg>
