<svg xmlns="http://www.w3.org/2000/svg" width="900" height="900" viewBox="0 0 900 900" role="img" aria-label="Ekrin B37 product visual">
  <defs>
    <linearGradient id="bg" x1="0" x2="1" y1="0" y2="1">
      <stop offset="0" stop-color="#fff7ed"/>
      <stop offset=".62" stop-color="#ffffff"/>
      <stop offset="1" stop-color="#f97316" stop-opacity=".22"/>
    </linearGradient>
    <pattern id="grid" width="48" height="48" patternUnits="userSpaceOnUse">
      <path d="M48 0H0v48" fill="none" stroke="#18181b" stroke-opacity=".06" stroke-width="2"/>
    </pattern>
  </defs>
  <rect width="900" height="900" rx="72" fill="url(#bg)"/>
  <rect width="900" height="900" rx="72" fill="url(#grid)"/>
  <circle cx="213" cy="198" r="115" fill="#2563eb" opacity=".18"/>
  <circle cx="702" cy="258" r="155" fill="#60a5fa" opacity=".14"/>
  <g transform="translate(0 -36)">
    <circle cx="310" cy="315" r="98" fill="#f97316"/><rect x="380" y="345" width="300" height="125" rx="60" fill="#18181b" transform="rotate(25 380 345)"/><rect x="470" y="445" width="112" height="245" rx="46" fill="#18181b" transform="rotate(25 470 445)"/><path d="M225 520c60-35 120-35 180 0" stroke="#18181b" stroke-width="18" stroke-linecap="round" stroke-linejoin="round" fill="none"/>
  </g>
  <rect x="238" y="651" width="424" height="64" rx="34" fill="#fff" opacity=".68"/>
  <text x="450" y="705" text-anchor="middle" font-size="38" font-weight="800" fill="#18181b">Ekrin B37</text>
  <text x="450" y="820" text-anchor="middle" font-size="22" font-weight="700" fill="#18181b" opacity=".72">Best Massage Guns</text>
</svg>
