<svg xmlns="http://www.w3.org/2000/svg" width="900" height="900" viewBox="0 0 900 900" role="img" aria-label="Nathan Pinnacle 12L product visual">
  <defs>
    <linearGradient id="bg" x1="0" x2="1" y1="0" y2="1">
      <stop offset="0" stop-color="#f9fafb"/>
      <stop offset=".62" stop-color="#ffffff"/>
      <stop offset="1" stop-color="#a3e635" stop-opacity=".22"/>
    </linearGradient>
    <pattern id="grid" width="48" height="48" patternUnits="userSpaceOnUse">
      <path d="M48 0H0v48" fill="none" stroke="#1f2937" stroke-opacity=".06" stroke-width="2"/>
    </pattern>
  </defs>
  <rect width="900" height="900" rx="72" fill="url(#bg)"/>
  <rect width="900" height="900" rx="72" fill="url(#grid)"/>
  <circle cx="260" cy="205" r="115" fill="#14b8a6" opacity=".18"/>
  <circle cx="695" cy="265" r="155" fill="#fb7185" opacity=".14"/>
  <path d="M130 705c70-48 150-48 220 0" stroke="#a3e635" stroke-width="24" stroke-linecap="round" opacity=".34" fill="none"/>
  <path d="M690 150c44 40 92 40 136 0" stroke="#14b8a6" stroke-width="20" stroke-linecap="round" opacity=".38" fill="none"/>
  <circle cx="130" cy="650" r="36" fill="#a3e635" opacity=".22"/>
  <circle cx="690" cy="580" r="36" fill="#fb7185" opacity=".25"/>
  <rect x="170" y="340" width="58" height="58" rx="18" fill="#fff" opacity=".48"/>
  <rect x="660" y="555" width="72" height="72" rx="24" fill="#fff" opacity=".36"/>
  <g transform="translate(0 14) rotate(2 450 450) scale(0.92) translate(35.99999999999998 35.99999999999998)">
    <path d="M315 205h110l25 125 25-125h110l78 480H510l-60-178-60 178H237l78-480Z" fill="#1f2937"/><rect x="300" y="385" width="95" height="155" rx="30" fill="#fff" opacity=".86"/><rect x="505" y="385" width="95" height="155" rx="30" fill="#a3e635" opacity=".9"/>
  </g>
</svg>
