<svg xmlns="http://www.w3.org/2000/svg" width="900" height="900" viewBox="0 0 900 900" role="img" aria-label="HOKA Speedgoat 6 product visual">
  <defs>
    <linearGradient id="bg" x1="0" x2="1" y1="0" y2="1">
      <stop offset="0" stop-color="#ecfeff"/>
      <stop offset=".62" stop-color="#ffffff"/>
      <stop offset="1" stop-color="#22c55e" stop-opacity=".22"/>
    </linearGradient>
    <pattern id="grid" width="48" height="48" patternUnits="userSpaceOnUse">
      <path d="M48 0H0v48" fill="none" stroke="#0f172a" stroke-opacity=".06" stroke-width="2"/>
    </pattern>
  </defs>
  <rect width="900" height="900" rx="72" fill="url(#bg)"/>
  <rect width="900" height="900" rx="72" fill="url(#grid)"/>
  <circle cx="266" cy="171" r="115" fill="#f59e0b" opacity=".18"/>
  <circle cx="629" cy="331" r="155" fill="#f97316" opacity=".14"/>
  <path d="M166 705c70-48 150-48 220 0" stroke="#22c55e" stroke-width="24" stroke-linecap="round" opacity=".34" fill="none"/>
  <path d="M684 150c44 40 92 40 136 0" stroke="#f59e0b" stroke-width="20" stroke-linecap="round" opacity=".38" fill="none"/>
  <circle cx="166" cy="686" r="30" fill="#22c55e" opacity=".22"/>
  <circle cx="684" cy="616" r="18" fill="#f97316" opacity=".25"/>
  <rect x="136" y="356" width="58" height="58" rx="18" fill="#fff" opacity=".48"/>
  <rect x="624" y="549" width="72" height="72" rx="24" fill="#fff" opacity=".36"/>
  <g transform="translate(0 14) rotate(0 450 450) scale(0.932) translate(30.599999999999977 30.599999999999977)">
    <path d="M205 525c70-100 120-155 205-175 70 90 157 138 280 154 44 6 66 44 45 82-28 50-134 75-280 70-116-4-215-28-250-66-18-20-19-43 0-65Z" fill="#0f172a"/><path d="M300 520h310M385 425l-58 78M460 448l-55 72M535 475l-45 60" stroke="#0f172a" stroke-width="18" stroke-linecap="round" stroke-linejoin="round" fill="none"/><path d="M235 605c115 30 310 42 470 10" stroke="#22c55e" stroke-width="24" stroke-linecap="round" fill="none"/>
  </g>
</svg>
