<svg xmlns="http://www.w3.org/2000/svg" width="900" height="900" viewBox="0 0 900 900" role="img" aria-label="Away Bigger Carry-On product visual">
  <defs>
    <linearGradient id="bg" x1="0" x2="1" y1="0" y2="1">
      <stop offset="0" stop-color="#ecfdf5"/>
      <stop offset=".62" stop-color="#ffffff"/>
      <stop offset="1" stop-color="#60a5fa" stop-opacity=".22"/>
    </linearGradient>
    <pattern id="grid" width="48" height="48" patternUnits="userSpaceOnUse">
      <path d="M48 0H0v48" fill="none" stroke="#064e3b" stroke-opacity=".06" stroke-width="2"/>
    </pattern>
  </defs>
  <rect width="900" height="900" rx="72" fill="url(#bg)"/>
  <rect width="900" height="900" rx="72" fill="url(#grid)"/>
  <circle cx="176" cy="161" r="115" fill="#f97316" opacity=".18"/>
  <circle cx="699" cy="261" r="155" fill="#38bdf8" opacity=".14"/>
  <g transform="translate(0 -36)">
    <rect x="300" y="230" width="300" height="430" rx="52" fill="#064e3b"/><path d="M385 225v-45h130v45M380 310v260M450 310v260M520 310v260" stroke="#064e3b" stroke-width="18" stroke-linecap="round" stroke-linejoin="round" fill="none"/><circle cx="370" cy="705" r="30" fill="#60a5fa"/><circle cx="530" cy="705" r="30" fill="#60a5fa"/>
  </g>
  <rect x="238" y="651" width="424" height="64" rx="34" fill="#fff" opacity=".68"/>
  <text x="450" y="705" text-anchor="middle" font-size="38" font-weight="800" fill="#064e3b">Away Bigger Carry-On</text>
  <text x="450" y="820" text-anchor="middle" font-size="22" font-weight="700" fill="#064e3b" opacity=".72">Best Carry-On Luggage</text>
</svg>
