<svg xmlns="http://www.w3.org/2000/svg" width="900" height="900" viewBox="0 0 900 900" role="img" aria-label="Birkenstock Arizona EVA product visual">
  <defs>
    <linearGradient id="bg" x1="0" x2="1" y1="0" y2="1">
      <stop offset="0" stop-color="#f9fafb"/>
      <stop offset=".62" stop-color="#ffffff"/>
      <stop offset="1" stop-color="#a3e635" stop-opacity=".22"/>
    </linearGradient>
    <pattern id="grid" width="48" height="48" patternUnits="userSpaceOnUse">
      <path d="M48 0H0v48" fill="none" stroke="#1f2937" stroke-opacity=".06" stroke-width="2"/>
    </pattern>
  </defs>
  <rect width="900" height="900" rx="72" fill="url(#bg)"/>
  <rect width="900" height="900" rx="72" fill="url(#grid)"/>
  <circle cx="268" cy="173" r="115" fill="#14b8a6" opacity=".18"/>
  <circle cx="667" cy="293" r="155" fill="#fb7185" opacity=".14"/>
  <g transform="translate(0 -36)">
    <path d="M245 525c70-110 165-162 285-155 85 5 145 55 130 122-22 98-140 170-292 180-88 6-150-12-123-147Z" fill="#1f2937"/><path d="M370 405c35 75 78 125 160 175M420 395c-12 85-55 135-140 150" stroke="#1f2937" stroke-width="18" stroke-linecap="round" stroke-linejoin="round" fill="none"/><circle cx="535" cy="470" r="30" fill="#a3e635"/>
  </g>
  <rect x="238" y="651" width="424" height="106" rx="34" fill="#fff" opacity=".68"/>
  <text x="450" y="705" text-anchor="middle" font-size="38" font-weight="800" fill="#1f2937">Birkenstock Arizona</text><text x="450" y="747" text-anchor="middle" font-size="38" font-weight="800" fill="#1f2937">EVA</text>
  <text x="450" y="820" text-anchor="middle" font-size="22" font-weight="700" fill="#1f2937" opacity=".72">Best Recovery Sandals</text>
</svg>
