<svg xmlns="http://www.w3.org/2000/svg" width="900" height="900" viewBox="0 0 900 900" role="img" aria-label="Technivorm Moccamaster KBGV Select product visual">
  <defs>
    <linearGradient id="bg" x1="0" x2="1" y1="0" y2="1">
      <stop offset="0" stop-color="#f8fafc"/>
      <stop offset=".62" stop-color="#ffffff"/>
      <stop offset="1" stop-color="#38bdf8" stop-opacity=".22"/>
    </linearGradient>
    <pattern id="grid" width="48" height="48" patternUnits="userSpaceOnUse">
      <path d="M48 0H0v48" fill="none" stroke="#111827" stroke-opacity=".06" stroke-width="2"/>
    </pattern>
  </defs>
  <rect width="900" height="900" rx="72" fill="url(#bg)"/>
  <rect width="900" height="900" rx="72" fill="url(#grid)"/>
  <circle cx="203" cy="228" r="115" fill="#fb7185" opacity=".18"/>
  <circle cx="712" cy="248" r="155" fill="#facc15" opacity=".14"/>
  <path d="M163 705c70-48 150-48 220 0" stroke="#38bdf8" stroke-width="24" stroke-linecap="round" opacity=".34" fill="none"/>
  <path d="M567 150c44 40 92 40 136 0" stroke="#fb7185" stroke-width="20" stroke-linecap="round" opacity=".38" fill="none"/>
  <circle cx="163" cy="653" r="27" fill="#38bdf8" opacity=".22"/>
  <circle cx="567" cy="583" r="27" fill="#facc15" opacity=".25"/>
  <rect x="193" y="323" width="58" height="58" rx="18" fill="#fff" opacity=".48"/>
  <rect x="657" y="552" width="72" height="72" rx="24" fill="#fff" opacity=".36"/>
  <g transform="translate(0 14) rotate(-6 450 450) scale(0.98) translate(9.000000000000007 9.000000000000007)">
    <rect x="285" y="285" width="285" height="330" rx="48" fill="#111827"/><path d="M570 385h40c58 0 58 112 0 112h-40M340 220c-28-42 28-60 0-102M435 220c-28-42 28-60 0-102M515 220c-28-42 28-60 0-102" stroke="#111827" stroke-width="18" stroke-linecap="round" stroke-linejoin="round" fill="none"/><rect x="315" y="620" width="230" height="48" rx="20" fill="#38bdf8"/>
  </g>
</svg>
