<svg xmlns="http://www.w3.org/2000/svg" width="900" height="900" viewBox="0 0 900 900" role="img" aria-label="Herman Miller Aeron product visual">
  <defs>
    <linearGradient id="bg" x1="0" x2="1" y1="0" y2="1">
      <stop offset="0" stop-color="#eff6ff"/>
      <stop offset=".62" stop-color="#ffffff"/>
      <stop offset="1" stop-color="#facc15" stop-opacity=".22"/>
    </linearGradient>
    <pattern id="grid" width="48" height="48" patternUnits="userSpaceOnUse">
      <path d="M48 0H0v48" fill="none" stroke="#172554" stroke-opacity=".06" stroke-width="2"/>
    </pattern>
  </defs>
  <rect width="900" height="900" rx="72" fill="url(#bg)"/>
  <rect width="900" height="900" rx="72" fill="url(#grid)"/>
  <circle cx="182" cy="167" r="115" fill="#10b981" opacity=".18"/>
  <circle cx="673" cy="287" r="155" fill="#2dd4bf" opacity=".14"/>
  <path d="M142 705c70-48 150-48 220 0" stroke="#facc15" stroke-width="24" stroke-linecap="round" opacity=".34" fill="none"/>
  <path d="M568 150c44 40 92 40 136 0" stroke="#10b981" stroke-width="20" stroke-linecap="round" opacity=".38" fill="none"/>
  <circle cx="142" cy="632" r="34" fill="#facc15" opacity=".22"/>
  <circle cx="568" cy="562" r="30" fill="#2dd4bf" opacity=".25"/>
  <rect x="132" y="312" width="58" height="58" rx="18" fill="#fff" opacity=".48"/>
  <rect x="678" y="573" width="72" height="72" rx="24" fill="#fff" opacity=".36"/>
  <g transform="translate(0 14) rotate(-5 450 450) scale(0.98) translate(9.000000000000007 9.000000000000007)">
    <rect x="315" y="225" width="270" height="260" rx="72" fill="#172554"/><rect x="295" y="470" width="310" height="98" rx="42" fill="#facc15"/><path d="M450 568v92M360 695h180M325 750h250" stroke="#172554" stroke-width="18" stroke-linecap="round" stroke-linejoin="round" fill="none"/>
  </g>
</svg>
