<svg xmlns="http://www.w3.org/2000/svg" width="900" height="900" viewBox="0 0 900 900" role="img" aria-label="Blueair Blue Pure 211i Max product visual">
  <defs>
    <linearGradient id="bg" x1="0" x2="1" y1="0" y2="1">
      <stop offset="0" stop-color="#ecfeff"/>
      <stop offset=".62" stop-color="#ffffff"/>
      <stop offset="1" stop-color="#22c55e" stop-opacity=".22"/>
    </linearGradient>
    <pattern id="grid" width="48" height="48" patternUnits="userSpaceOnUse">
      <path d="M48 0H0v48" fill="none" stroke="#0f172a" stroke-opacity=".06" stroke-width="2"/>
    </pattern>
  </defs>
  <rect width="900" height="900" rx="72" fill="url(#bg)"/>
  <rect width="900" height="900" rx="72" fill="url(#grid)"/>
  <circle cx="258" cy="203" r="115" fill="#f59e0b" opacity=".18"/>
  <circle cx="697" cy="263" r="155" fill="#f97316" opacity=".14"/>
  <path d="M248 705c70-48 150-48 220 0" stroke="#22c55e" stroke-width="24" stroke-linecap="round" opacity=".34" fill="none"/>
  <path d="M542 150c44 40 92 40 136 0" stroke="#f59e0b" stroke-width="20" stroke-linecap="round" opacity=".38" fill="none"/>
  <circle cx="248" cy="648" r="42" fill="#22c55e" opacity=".22"/>
  <circle cx="542" cy="578" r="34" fill="#f97316" opacity=".25"/>
  <rect x="168" y="338" width="58" height="58" rx="18" fill="#fff" opacity=".48"/>
  <rect x="662" y="557" width="72" height="72" rx="24" fill="#fff" opacity=".36"/>
  <g transform="translate(0 14) rotate(5 450 450) scale(0.992) translate(3.600000000000003 3.600000000000003)">
    <rect x="310" y="205" width="280" height="480" rx="62" fill="#0f172a"/><g fill="#fff" opacity=".9"><circle cx="365" cy="310" r="11"/><circle cx="435" cy="310" r="11"/><circle cx="505" cy="310" r="11"/><circle cx="365" cy="358" r="11"/><circle cx="435" cy="358" r="11"/><circle cx="505" cy="358" r="11"/><circle cx="365" cy="406" r="11"/><circle cx="435" cy="406" r="11"/><circle cx="505" cy="406" r="11"/><circle cx="365" cy="454" r="11"/><circle cx="435" cy="454" r="11"/><circle cx="505" cy="454" r="11"/><circle cx="365" cy="502" r="11"/><circle cx="435" cy="502" r="11"/><circle cx="505" cy="502" r="11"/><circle cx="365" cy="550" r="11"/><circle cx="435" cy="550" r="11"/><circle cx="505" cy="550" r="11"/></g><path d="M235 330c-65-42-65-112 10-140M665 570c65 42 65 112-10 140" stroke="#0f172a" stroke-width="18" stroke-linecap="round" stroke-linejoin="round" fill="none"/>
  </g>
</svg>
