<svg xmlns="http://www.w3.org/2000/svg" width="900" height="900" viewBox="0 0 900 900" role="img" aria-label="Shokz OpenFit 2 product visual">
  <defs>
    <linearGradient id="bg" x1="0" x2="1" y1="0" y2="1">
      <stop offset="0" stop-color="#ecfeff"/>
      <stop offset=".62" stop-color="#ffffff"/>
      <stop offset="1" stop-color="#22c55e" stop-opacity=".22"/>
    </linearGradient>
    <pattern id="grid" width="48" height="48" patternUnits="userSpaceOnUse">
      <path d="M48 0H0v48" fill="none" stroke="#0f172a" stroke-opacity=".06" stroke-width="2"/>
    </pattern>
  </defs>
  <rect width="900" height="900" rx="72" fill="url(#bg)"/>
  <rect width="900" height="900" rx="72" fill="url(#grid)"/>
  <circle cx="226" cy="171" r="115" fill="#f59e0b" opacity=".18"/>
  <circle cx="669" cy="291" r="155" fill="#f97316" opacity=".14"/>
  <g transform="translate(0 -36)">
    <path d="M280 500v-92c0-120 76-202 170-202s170 82 170 202v92" stroke="#0f172a" stroke-width="18" stroke-linecap="round" stroke-linejoin="round" fill="none"/><rect x="215" y="470" width="108" height="180" rx="42" fill="#0f172a"/><rect x="577" y="470" width="108" height="180" rx="42" fill="#0f172a"/><path d="M345 660c70 42 140 42 210 0" stroke="#0f172a" stroke-width="18" stroke-linecap="round" stroke-linejoin="round" fill="none"/>
  </g>
  <rect x="238" y="651" width="424" height="64" rx="34" fill="#fff" opacity=".68"/>
  <text x="450" y="705" text-anchor="middle" font-size="38" font-weight="800" fill="#0f172a">Shokz OpenFit 2</text>
  <text x="450" y="820" text-anchor="middle" font-size="22" font-weight="700" fill="#0f172a" opacity=".72">Best Running Headphones</text>
</svg>
