<svg xmlns="http://www.w3.org/2000/svg" width="900" height="900" viewBox="0 0 900 900" role="img" aria-label="Brooks Catamount 4 product visual">
  <defs>
    <linearGradient id="bg" x1="0" x2="1" y1="0" y2="1"><stop offset="0" stop-color="#eff6ff"/><stop offset=".62" stop-color="#ffffff"/><stop offset="1" stop-color="#0f766e" stop-opacity=".2"/></linearGradient>
    <pattern id="grid" width="48" height="48" patternUnits="userSpaceOnUse"><path d="M48 0H0v48" fill="none" stroke="#172554" stroke-opacity=".06" stroke-width="2"/></pattern>
  </defs>
  <rect width="900" height="900" rx="72" fill="url(#bg)"/>
  <rect width="900" height="900" rx="72" fill="url(#grid)"/>
  <circle cx="279" cy="239" r="115" fill="#f97316" opacity=".16"/>
  <circle cx="631" cy="319" r="155" fill="#0f766e" opacity=".13"/>
  <path d="M285 716c70-44 154-44 226 0" stroke="#0f766e" stroke-width="24" stroke-linecap="round" opacity=".28" fill="none"/>
  <g transform="translate(0 12) rotate(1 450 450) scale(.94) translate(27 27)"><path d="M205 525c70-100 120-155 205-175 70 90 157 138 280 154 44 6 66 44 45 82-28 50-134 75-280 70-116-4-215-28-250-66-18-20-19-43 0-65Z" fill="#172554"/><path d="M300 520h310M385 425l-58 78M460 448l-55 72M535 475l-45 60" stroke="#172554" stroke-width="18" stroke-linecap="round" stroke-linejoin="round" fill="none"/><path d="M235 605c115 30 310 42 470 10" stroke="#0f766e" stroke-width="24" stroke-linecap="round" fill="none"/></g>
</svg>
