<svg xmlns="http://www.w3.org/2000/svg" width="900" height="900" viewBox="0 0 900 900" role="img" aria-label="New Balance Fresh Foam X 1080v14 product visual">
  <defs>
    <linearGradient id="bg" x1="0" x2="1" y1="0" y2="1">
      <stop offset="0" stop-color="#ecfdf5"/>
      <stop offset=".62" stop-color="#ffffff"/>
      <stop offset="1" stop-color="#60a5fa" stop-opacity=".22"/>
    </linearGradient>
    <pattern id="grid" width="48" height="48" patternUnits="userSpaceOnUse">
      <path d="M48 0H0v48" fill="none" stroke="#064e3b" stroke-opacity=".06" stroke-width="2"/>
    </pattern>
  </defs>
  <rect width="900" height="900" rx="72" fill="url(#bg)"/>
  <rect width="900" height="900" rx="72" fill="url(#grid)"/>
  <circle cx="264" cy="209" r="115" fill="#f97316" opacity=".18"/>
  <circle cx="671" cy="289" r="155" fill="#38bdf8" opacity=".14"/>
  <g transform="translate(0 -36)">
    <path d="M205 525c70-100 120-155 205-175 70 90 157 138 280 154 44 6 66 44 45 82-28 50-134 75-280 70-116-4-215-28-250-66-18-20-19-43 0-65Z" fill="#064e3b"/><path d="M300 520h310M385 425l-58 78M460 448l-55 72M535 475l-45 60" stroke="#064e3b" stroke-width="18" stroke-linecap="round" stroke-linejoin="round" fill="none"/><path d="M235 605c115 30 310 42 470 10" stroke="#60a5fa" stroke-width="24" stroke-linecap="round" fill="none"/>
  </g>
  <rect x="238" y="651" width="424" height="106" rx="34" fill="#fff" opacity=".68"/>
  <text x="450" y="705" text-anchor="middle" font-size="38" font-weight="800" fill="#064e3b">New Balance Fresh</text><text x="450" y="747" text-anchor="middle" font-size="38" font-weight="800" fill="#064e3b">Foam X 1080v14</text>
  <text x="450" y="820" text-anchor="middle" font-size="22" font-weight="700" fill="#064e3b" opacity=".72">Best Marathon Shoes for</text><text x="450" y="848" text-anchor="middle" font-size="22" font-weight="700" fill="#064e3b" opacity=".72">Heavy Runners</text>
</svg>
