<svg xmlns="http://www.w3.org/2000/svg" width="900" height="900" viewBox="0 0 900 900" role="img" aria-label="Uplift V2 Standing Desk product visual">
  <defs>
    <linearGradient id="bg" x1="0" x2="1" y1="0" y2="1">
      <stop offset="0" stop-color="#fafafa"/>
      <stop offset=".62" stop-color="#ffffff"/>
      <stop offset="1" stop-color="#2dd4bf" stop-opacity=".22"/>
    </linearGradient>
    <pattern id="grid" width="48" height="48" patternUnits="userSpaceOnUse">
      <path d="M48 0H0v48" fill="none" stroke="#3f3f46" stroke-opacity=".06" stroke-width="2"/>
    </pattern>
  </defs>
  <rect width="900" height="900" rx="72" fill="url(#bg)"/>
  <rect width="900" height="900" rx="72" fill="url(#grid)"/>
  <circle cx="185" cy="170" r="115" fill="#a855f7" opacity=".18"/>
  <circle cx="670" cy="290" r="155" fill="#a3e635" opacity=".14"/>
  <path d="M205 705c70-48 150-48 220 0" stroke="#2dd4bf" stroke-width="24" stroke-linecap="round" opacity=".34" fill="none"/>
  <path d="M545 150c44 40 92 40 136 0" stroke="#a855f7" stroke-width="20" stroke-linecap="round" opacity=".38" fill="none"/>
  <circle cx="205" cy="695" r="41" fill="#2dd4bf" opacity=".22"/>
  <circle cx="545" cy="625" r="33" fill="#a3e635" opacity=".25"/>
  <rect x="135" y="315" width="58" height="58" rx="18" fill="#fff" opacity=".48"/>
  <rect x="615" y="570" width="72" height="72" rx="24" fill="#fff" opacity=".36"/>
  <g transform="translate(0 14) rotate(-5 450 450) scale(0.98) translate(9.000000000000007 9.000000000000007)">
    <rect x="185" y="350" width="530" height="64" rx="22" fill="#3f3f46"/><path d="M270 414v220M630 414v220" stroke="#3f3f46" stroke-width="18" stroke-linecap="round" stroke-linejoin="round" fill="none"/><rect x="350" y="220" width="200" height="118" rx="18" fill="#fff" opacity=".9"/><path d="M395 338h110" stroke="#3f3f46" stroke-width="18" stroke-linecap="round" stroke-linejoin="round" fill="none"/>
  </g>
</svg>
