<svg xmlns="http://www.w3.org/2000/svg" width="900" height="900" viewBox="0 0 900 900" role="img" aria-label="Ultimate Direction Race Vest 6.0 product visual">
  <defs>
    <linearGradient id="bg" x1="0" x2="1" y1="0" y2="1">
      <stop offset="0" stop-color="#fafafa"/>
      <stop offset=".62" stop-color="#ffffff"/>
      <stop offset="1" stop-color="#2dd4bf" stop-opacity=".22"/>
    </linearGradient>
    <pattern id="grid" width="48" height="48" patternUnits="userSpaceOnUse">
      <path d="M48 0H0v48" fill="none" stroke="#3f3f46" stroke-opacity=".06" stroke-width="2"/>
    </pattern>
  </defs>
  <rect width="900" height="900" rx="72" fill="url(#bg)"/>
  <rect width="900" height="900" rx="72" fill="url(#grid)"/>
  <circle cx="185" cy="210" r="115" fill="#a855f7" opacity=".18"/>
  <circle cx="670" cy="290" r="155" fill="#a3e635" opacity=".14"/>
  <path d="M175 705c70-48 150-48 220 0" stroke="#2dd4bf" stroke-width="24" stroke-linecap="round" opacity=".34" fill="none"/>
  <path d="M595 150c44 40 92 40 136 0" stroke="#a855f7" stroke-width="20" stroke-linecap="round" opacity=".38" fill="none"/>
  <circle cx="175" cy="635" r="25" fill="#2dd4bf" opacity=".22"/>
  <circle cx="595" cy="565" r="33" fill="#a3e635" opacity=".25"/>
  <rect x="175" y="315" width="58" height="58" rx="18" fill="#fff" opacity=".48"/>
  <rect x="675" y="570" width="72" height="72" rx="24" fill="#fff" opacity=".36"/>
  <g transform="translate(0 14) rotate(-6 450 450) scale(0.9560000000000001) translate(19.79999999999997 19.79999999999997)">
    <rect x="175" y="300" width="550" height="320" rx="64" fill="#3f3f46"/><rect x="245" y="365" width="210" height="135" rx="24" fill="#fff" opacity=".88"/><circle cx="580" cy="430" r="78" fill="#2dd4bf"/><path d="M270 565h360" stroke="#3f3f46" stroke-width="18" stroke-linecap="round" stroke-linejoin="round" fill="none"/>
  </g>
</svg>
