<svg xmlns="http://www.w3.org/2000/svg" width="900" height="900" viewBox="0 0 900 900" role="img" aria-label="Kinesis Freestyle2 product visual">
  <defs>
    <linearGradient id="bg" x1="0" x2="1" y1="0" y2="1">
      <stop offset="0" stop-color="#f5f3ff"/>
      <stop offset=".62" stop-color="#ffffff"/>
      <stop offset="1" stop-color="#fb7185" stop-opacity=".22"/>
    </linearGradient>
    <pattern id="grid" width="48" height="48" patternUnits="userSpaceOnUse">
      <path d="M48 0H0v48" fill="none" stroke="#312e81" stroke-opacity=".06" stroke-width="2"/>
    </pattern>
  </defs>
  <rect width="900" height="900" rx="72" fill="url(#bg)"/>
  <rect width="900" height="900" rx="72" fill="url(#grid)"/>
  <circle cx="231" cy="216" r="115" fill="#22c55e" opacity=".18"/>
  <circle cx="684" cy="276" r="155" fill="#22c55e" opacity=".14"/>
  <g transform="translate(0 -36)">
    <rect x="165" y="320" width="570" height="260" rx="42" fill="#312e81"/><g fill="#fff" opacity=".9"><rect x="210" y="365" width="48" height="32" rx="8"/><rect x="290" y="365" width="48" height="32" rx="8"/><rect x="370" y="365" width="48" height="32" rx="8"/><rect x="450" y="365" width="48" height="32" rx="8"/><rect x="530" y="365" width="48" height="32" rx="8"/><rect x="610" y="365" width="48" height="32" rx="8"/><rect x="210" y="423" width="48" height="32" rx="8"/><rect x="290" y="423" width="48" height="32" rx="8"/><rect x="370" y="423" width="48" height="32" rx="8"/><rect x="450" y="423" width="48" height="32" rx="8"/><rect x="530" y="423" width="48" height="32" rx="8"/><rect x="610" y="423" width="48" height="32" rx="8"/><rect x="210" y="481" width="48" height="32" rx="8"/><rect x="290" y="481" width="48" height="32" rx="8"/><rect x="370" y="481" width="48" height="32" rx="8"/><rect x="450" y="481" width="48" height="32" rx="8"/><rect x="530" y="481" width="48" height="32" rx="8"/><rect x="610" y="481" width="48" height="32" rx="8"/></g><rect x="290" y="548" width="320" height="34" rx="12" fill="#fb7185"/>
  </g>
  <rect x="238" y="651" width="424" height="64" rx="34" fill="#fff" opacity=".68"/>
  <text x="450" y="705" text-anchor="middle" font-size="38" font-weight="800" fill="#312e81">Kinesis Freestyle2</text>
  <text x="450" y="820" text-anchor="middle" font-size="22" font-weight="700" fill="#312e81" opacity=".72">Best Ergonomic Keyboards</text>
</svg>
