<svg xmlns="http://www.w3.org/2000/svg" width="900" height="900" viewBox="0 0 900 900" role="img" aria-label="Shokz OpenFit 2 product visual">
  <defs>
    <linearGradient id="bg" x1="0" x2="1" y1="0" y2="1">
      <stop offset="0" stop-color="#ecfeff"/>
      <stop offset=".62" stop-color="#ffffff"/>
      <stop offset="1" stop-color="#22c55e" stop-opacity=".22"/>
    </linearGradient>
    <pattern id="grid" width="48" height="48" patternUnits="userSpaceOnUse">
      <path d="M48 0H0v48" fill="none" stroke="#0f172a" stroke-opacity=".06" stroke-width="2"/>
    </pattern>
  </defs>
  <rect width="900" height="900" rx="72" fill="url(#bg)"/>
  <rect width="900" height="900" rx="72" fill="url(#grid)"/>
  <circle cx="226" cy="171" r="115" fill="#f59e0b" opacity=".18"/>
  <circle cx="669" cy="291" r="155" fill="#f97316" opacity=".14"/>
  <path d="M156 705c70-48 150-48 220 0" stroke="#22c55e" stroke-width="24" stroke-linecap="round" opacity=".34" fill="none"/>
  <path d="M534 150c44 40 92 40 136 0" stroke="#f59e0b" stroke-width="20" stroke-linecap="round" opacity=".38" fill="none"/>
  <circle cx="156" cy="676" r="34" fill="#22c55e" opacity=".22"/>
  <circle cx="534" cy="606" r="26" fill="#f97316" opacity=".25"/>
  <rect x="136" y="316" width="58" height="58" rx="18" fill="#fff" opacity=".48"/>
  <rect x="634" y="529" width="72" height="72" rx="24" fill="#fff" opacity=".36"/>
  <g transform="translate(0 14) rotate(2 450 450) scale(0.98) translate(9.000000000000007 9.000000000000007)">
    <path d="M280 500v-92c0-120 76-202 170-202s170 82 170 202v92" stroke="#0f172a" stroke-width="18" stroke-linecap="round" stroke-linejoin="round" fill="none"/><rect x="215" y="470" width="108" height="180" rx="42" fill="#0f172a"/><rect x="577" y="470" width="108" height="180" rx="42" fill="#0f172a"/><path d="M345 660c70 42 140 42 210 0" stroke="#0f172a" stroke-width="18" stroke-linecap="round" stroke-linejoin="round" fill="none"/>
  </g>
</svg>
