<svg xmlns="http://www.w3.org/2000/svg" width="900" height="900" viewBox="0 0 900 900" role="img" aria-label="Grovemade Wool Felt Desk Pad product visual">
  <defs>
    <linearGradient id="bg" x1="0" x2="1" y1="0" y2="1">
      <stop offset="0" stop-color="#ecfdf5"/>
      <stop offset=".62" stop-color="#ffffff"/>
      <stop offset="1" stop-color="#60a5fa" stop-opacity=".22"/>
    </linearGradient>
    <pattern id="grid" width="48" height="48" patternUnits="userSpaceOnUse">
      <path d="M48 0H0v48" fill="none" stroke="#064e3b" stroke-opacity=".06" stroke-width="2"/>
    </pattern>
  </defs>
  <rect width="900" height="900" rx="72" fill="url(#bg)"/>
  <rect width="900" height="900" rx="72" fill="url(#grid)"/>
  <circle cx="232" cy="177" r="115" fill="#f97316" opacity=".18"/>
  <circle cx="663" cy="297" r="155" fill="#38bdf8" opacity=".14"/>
  <path d="M222 705c70-48 150-48 220 0" stroke="#60a5fa" stroke-width="24" stroke-linecap="round" opacity=".34" fill="none"/>
  <path d="M638 150c44 40 92 40 136 0" stroke="#f97316" stroke-width="20" stroke-linecap="round" opacity=".38" fill="none"/>
  <circle cx="222" cy="652" r="44" fill="#60a5fa" opacity=".22"/>
  <circle cx="638" cy="582" r="32" fill="#38bdf8" opacity=".25"/>
  <rect x="142" y="322" width="58" height="58" rx="18" fill="#fff" opacity=".48"/>
  <rect x="658" y="583" width="72" height="72" rx="24" fill="#fff" opacity=".36"/>
  <g transform="translate(0 14) rotate(4 450 450) scale(0.932) translate(30.599999999999977 30.599999999999977)">
    <rect x="185" y="350" width="530" height="64" rx="22" fill="#064e3b"/><path d="M270 414v220M630 414v220" stroke="#064e3b" stroke-width="18" stroke-linecap="round" stroke-linejoin="round" fill="none"/><rect x="350" y="220" width="200" height="118" rx="18" fill="#fff" opacity=".9"/><path d="M395 338h110" stroke="#064e3b" stroke-width="18" stroke-linecap="round" stroke-linejoin="round" fill="none"/>
  </g>
</svg>
