<svg xmlns="http://www.w3.org/2000/svg" width="900" height="900" viewBox="0 0 900 900" role="img" aria-label="ZSA Voyager product visual">
  <defs>
    <linearGradient id="bg" x1="0" x2="1" y1="0" y2="1">
      <stop offset="0" stop-color="#fafafa"/>
      <stop offset=".62" stop-color="#ffffff"/>
      <stop offset="1" stop-color="#2dd4bf" stop-opacity=".22"/>
    </linearGradient>
    <pattern id="grid" width="48" height="48" patternUnits="userSpaceOnUse">
      <path d="M48 0H0v48" fill="none" stroke="#3f3f46" stroke-opacity=".06" stroke-width="2"/>
    </pattern>
  </defs>
  <rect width="900" height="900" rx="72" fill="url(#bg)"/>
  <rect width="900" height="900" rx="72" fill="url(#grid)"/>
  <circle cx="241" cy="186" r="115" fill="#a855f7" opacity=".18"/>
  <circle cx="694" cy="266" r="155" fill="#a3e635" opacity=".14"/>
  <g transform="translate(0 -36)">
    <rect x="165" y="320" width="570" height="260" rx="42" fill="#3f3f46"/><g fill="#fff" opacity=".9"><rect x="210" y="365" width="48" height="32" rx="8"/><rect x="290" y="365" width="48" height="32" rx="8"/><rect x="370" y="365" width="48" height="32" rx="8"/><rect x="450" y="365" width="48" height="32" rx="8"/><rect x="530" y="365" width="48" height="32" rx="8"/><rect x="610" y="365" width="48" height="32" rx="8"/><rect x="210" y="423" width="48" height="32" rx="8"/><rect x="290" y="423" width="48" height="32" rx="8"/><rect x="370" y="423" width="48" height="32" rx="8"/><rect x="450" y="423" width="48" height="32" rx="8"/><rect x="530" y="423" width="48" height="32" rx="8"/><rect x="610" y="423" width="48" height="32" rx="8"/><rect x="210" y="481" width="48" height="32" rx="8"/><rect x="290" y="481" width="48" height="32" rx="8"/><rect x="370" y="481" width="48" height="32" rx="8"/><rect x="450" y="481" width="48" height="32" rx="8"/><rect x="530" y="481" width="48" height="32" rx="8"/><rect x="610" y="481" width="48" height="32" rx="8"/></g><rect x="290" y="548" width="320" height="34" rx="12" fill="#2dd4bf"/>
  </g>
  <rect x="238" y="651" width="424" height="64" rx="34" fill="#fff" opacity=".68"/>
  <text x="450" y="705" text-anchor="middle" font-size="38" font-weight="800" fill="#3f3f46">ZSA Voyager</text>
  <text x="450" y="820" text-anchor="middle" font-size="22" font-weight="700" fill="#3f3f46" opacity=".72">Best Ergonomic Keyboards</text>
</svg>
