<svg xmlns="http://www.w3.org/2000/svg" width="900" height="900" viewBox="0 0 900 900" role="img" aria-label="CamelBak Zephyr Pro product visual">
  <defs>
    <linearGradient id="bg" x1="0" x2="1" y1="0" y2="1">
      <stop offset="0" stop-color="#f9fafb"/>
      <stop offset=".62" stop-color="#ffffff"/>
      <stop offset="1" stop-color="#a3e635" stop-opacity=".22"/>
    </linearGradient>
    <pattern id="grid" width="48" height="48" patternUnits="userSpaceOnUse">
      <path d="M48 0H0v48" fill="none" stroke="#1f2937" stroke-opacity=".06" stroke-width="2"/>
    </pattern>
  </defs>
  <rect width="900" height="900" rx="72" fill="url(#bg)"/>
  <rect width="900" height="900" rx="72" fill="url(#grid)"/>
  <circle cx="172" cy="157" r="115" fill="#14b8a6" opacity=".18"/>
  <circle cx="643" cy="317" r="155" fill="#fb7185" opacity=".14"/>
  <path d="M162 705c70-48 150-48 220 0" stroke="#a3e635" stroke-width="24" stroke-linecap="round" opacity=".34" fill="none"/>
  <path d="M648 150c44 40 92 40 136 0" stroke="#14b8a6" stroke-width="20" stroke-linecap="round" opacity=".38" fill="none"/>
  <circle cx="162" cy="622" r="40" fill="#a3e635" opacity=".22"/>
  <circle cx="648" cy="552" r="20" fill="#fb7185" opacity=".25"/>
  <rect x="122" y="342" width="58" height="58" rx="18" fill="#fff" opacity=".48"/>
  <rect x="688" y="583" width="72" height="72" rx="24" fill="#fff" opacity=".36"/>
  <g transform="translate(0 14) rotate(-2 450 450) scale(0.9680000000000001) translate(14.399999999999963 14.399999999999963)">
    <path d="M315 205h110l25 125 25-125h110l78 480H510l-60-178-60 178H237l78-480Z" fill="#1f2937"/><rect x="300" y="385" width="95" height="155" rx="30" fill="#fff" opacity=".86"/><rect x="505" y="385" width="95" height="155" rx="30" fill="#a3e635" opacity=".9"/>
  </g>
</svg>
