<svg xmlns="http://www.w3.org/2000/svg" width="900" height="900" viewBox="0 0 900 900" role="img" aria-label="Black Diamond Distance Carbon Z product visual">
  <defs>
    <linearGradient id="bg" x1="0" x2="1" y1="0" y2="1">
      <stop offset="0" stop-color="#f5f3ff"/>
      <stop offset=".62" stop-color="#ffffff"/>
      <stop offset="1" stop-color="#fb7185" stop-opacity=".22"/>
    </linearGradient>
    <pattern id="grid" width="48" height="48" patternUnits="userSpaceOnUse">
      <path d="M48 0H0v48" fill="none" stroke="#312e81" stroke-opacity=".06" stroke-width="2"/>
    </pattern>
  </defs>
  <rect width="900" height="900" rx="72" fill="url(#bg)"/>
  <rect width="900" height="900" rx="72" fill="url(#grid)"/>
  <circle cx="255" cy="160" r="115" fill="#22c55e" opacity=".18"/>
  <circle cx="680" cy="280" r="155" fill="#22c55e" opacity=".14"/>
  <g transform="translate(0 -36)">
    <path d="M315 205h110l25 125 25-125h110l78 480H510l-60-178-60 178H237l78-480Z" fill="#312e81"/><rect x="300" y="385" width="95" height="155" rx="30" fill="#fff" opacity=".86"/><rect x="505" y="385" width="95" height="155" rx="30" fill="#fb7185" opacity=".9"/>
  </g>
  <rect x="238" y="651" width="424" height="106" rx="34" fill="#fff" opacity=".68"/>
  <text x="450" y="705" text-anchor="middle" font-size="38" font-weight="800" fill="#312e81">Black Diamond</text><text x="450" y="747" text-anchor="middle" font-size="38" font-weight="800" fill="#312e81">Distance Carbon Z</text>
  <text x="450" y="820" text-anchor="middle" font-size="22" font-weight="700" fill="#312e81" opacity=".72">Best Trail Running Poles</text>
</svg>
