<svg xmlns="http://www.w3.org/2000/svg" width="900" height="900" viewBox="0 0 900 900" role="img" aria-label="Garmin Forerunner 265 product visual">
  <defs>
    <linearGradient id="bg" x1="0" x2="1" y1="0" y2="1">
      <stop offset="0" stop-color="#fafafa"/>
      <stop offset=".62" stop-color="#ffffff"/>
      <stop offset="1" stop-color="#2dd4bf" stop-opacity=".22"/>
    </linearGradient>
    <pattern id="grid" width="48" height="48" patternUnits="userSpaceOnUse">
      <path d="M48 0H0v48" fill="none" stroke="#3f3f46" stroke-opacity=".06" stroke-width="2"/>
    </pattern>
  </defs>
  <rect width="900" height="900" rx="72" fill="url(#bg)"/>
  <rect width="900" height="900" rx="72" fill="url(#grid)"/>
  <circle cx="177" cy="202" r="115" fill="#a855f7" opacity=".18"/>
  <circle cx="678" cy="282" r="155" fill="#a3e635" opacity=".14"/>
  <path d="M287 705c70-48 150-48 220 0" stroke="#2dd4bf" stroke-width="24" stroke-linecap="round" opacity=".34" fill="none"/>
  <path d="M633 150c44 40 92 40 136 0" stroke="#a855f7" stroke-width="20" stroke-linecap="round" opacity=".38" fill="none"/>
  <circle cx="287" cy="657" r="25" fill="#2dd4bf" opacity=".22"/>
  <circle cx="633" cy="587" r="25" fill="#a3e635" opacity=".25"/>
  <rect x="167" y="357" width="58" height="58" rx="18" fill="#fff" opacity=".48"/>
  <rect x="653" y="578" width="72" height="72" rx="24" fill="#fff" opacity=".36"/>
  <g transform="translate(0 14) rotate(-1 450 450) scale(0.9560000000000001) translate(19.79999999999997 19.79999999999997)">
    <rect x="365" y="175" width="170" height="90" rx="38" fill="#2dd4bf" opacity=".72"/><circle cx="450" cy="450" r="118" fill="#fff" opacity=".9"/><circle cx="450" cy="450" r="80" stroke="#3f3f46" stroke-width="18" stroke-linecap="round" stroke-linejoin="round" fill="none"/><path d="M450 405v50l42 28" stroke="#3f3f46" stroke-width="18" stroke-linecap="round" stroke-linejoin="round" fill="none"/><rect x="365" y="635" width="170" height="90" rx="38" fill="#2dd4bf" opacity=".72"/>
  </g>
</svg>
