<svg xmlns="http://www.w3.org/2000/svg" width="900" height="900" viewBox="0 0 900 900" role="img" aria-label="Saucony Ride 18 product visual">
  <defs>
    <linearGradient id="bg" x1="0" x2="1" y1="0" y2="1">
      <stop offset="0" stop-color="#fff7ed"/>
      <stop offset=".62" stop-color="#ffffff"/>
      <stop offset="1" stop-color="#f97316" stop-opacity=".22"/>
    </linearGradient>
    <pattern id="grid" width="48" height="48" patternUnits="userSpaceOnUse">
      <path d="M48 0H0v48" fill="none" stroke="#18181b" stroke-opacity=".06" stroke-width="2"/>
    </pattern>
  </defs>
  <rect width="900" height="900" rx="72" fill="url(#bg)"/>
  <rect width="900" height="900" rx="72" fill="url(#grid)"/>
  <circle cx="229" cy="214" r="115" fill="#2563eb" opacity=".18"/>
  <circle cx="686" cy="274" r="155" fill="#60a5fa" opacity=".14"/>
  <g transform="translate(0 -36)">
    <path d="M205 525c70-100 120-155 205-175 70 90 157 138 280 154 44 6 66 44 45 82-28 50-134 75-280 70-116-4-215-28-250-66-18-20-19-43 0-65Z" fill="#18181b"/><path d="M300 520h310M385 425l-58 78M460 448l-55 72M535 475l-45 60" stroke="#18181b" stroke-width="18" stroke-linecap="round" stroke-linejoin="round" fill="none"/><path d="M235 605c115 30 310 42 470 10" stroke="#f97316" stroke-width="24" stroke-linecap="round" fill="none"/>
  </g>
  <rect x="238" y="651" width="424" height="64" rx="34" fill="#fff" opacity=".68"/>
  <text x="450" y="705" text-anchor="middle" font-size="38" font-weight="800" fill="#18181b">Saucony Ride 18</text>
  <text x="450" y="820" text-anchor="middle" font-size="22" font-weight="700" fill="#18181b" opacity=".72">Best Daily Trainers for</text><text x="450" y="848" text-anchor="middle" font-size="22" font-weight="700" fill="#18181b" opacity=".72">Marathon Training</text>
</svg>
