<svg xmlns="http://www.w3.org/2000/svg" width="900" height="900" viewBox="0 0 900 900" role="img" aria-label="Birkenstock Arizona EVA product visual">
  <defs>
    <linearGradient id="bg" x1="0" x2="1" y1="0" y2="1">
      <stop offset="0" stop-color="#f9fafb"/>
      <stop offset=".62" stop-color="#ffffff"/>
      <stop offset="1" stop-color="#a3e635" stop-opacity=".22"/>
    </linearGradient>
    <pattern id="grid" width="48" height="48" patternUnits="userSpaceOnUse">
      <path d="M48 0H0v48" fill="none" stroke="#1f2937" stroke-opacity=".06" stroke-width="2"/>
    </pattern>
  </defs>
  <rect width="900" height="900" rx="72" fill="url(#bg)"/>
  <rect width="900" height="900" rx="72" fill="url(#grid)"/>
  <circle cx="268" cy="173" r="115" fill="#14b8a6" opacity=".18"/>
  <circle cx="667" cy="293" r="155" fill="#fb7185" opacity=".14"/>
  <path d="M258 705c70-48 150-48 220 0" stroke="#a3e635" stroke-width="24" stroke-linecap="round" opacity=".34" fill="none"/>
  <path d="M652 150c44 40 92 40 136 0" stroke="#14b8a6" stroke-width="20" stroke-linecap="round" opacity=".38" fill="none"/>
  <circle cx="258" cy="628" r="24" fill="#a3e635" opacity=".22"/>
  <circle cx="652" cy="558" r="20" fill="#fb7185" opacity=".25"/>
  <rect x="138" y="318" width="58" height="58" rx="18" fill="#fff" opacity=".48"/>
  <rect x="682" y="547" width="72" height="72" rx="24" fill="#fff" opacity=".36"/>
  <g transform="translate(0 14) rotate(2 450 450) scale(0.9440000000000001) translate(25.19999999999997 25.19999999999997)">
    <path d="M245 525c70-110 165-162 285-155 85 5 145 55 130 122-22 98-140 170-292 180-88 6-150-12-123-147Z" fill="#1f2937"/><path d="M370 405c35 75 78 125 160 175M420 395c-12 85-55 135-140 150" stroke="#1f2937" stroke-width="18" stroke-linecap="round" stroke-linejoin="round" fill="none"/><circle cx="535" cy="470" r="30" fill="#a3e635"/>
  </g>
</svg>
