<svg xmlns="http://www.w3.org/2000/svg" width="900" height="900" viewBox="0 0 900 900" role="img" aria-label="Travelpro Platinum Elite 21-inch product visual">
  <defs>
    <linearGradient id="bg" x1="0" x2="1" y1="0" y2="1">
      <stop offset="0" stop-color="#fff7ed"/>
      <stop offset=".62" stop-color="#ffffff"/>
      <stop offset="1" stop-color="#f97316" stop-opacity=".22"/>
    </linearGradient>
    <pattern id="grid" width="48" height="48" patternUnits="userSpaceOnUse">
      <path d="M48 0H0v48" fill="none" stroke="#18181b" stroke-opacity=".06" stroke-width="2"/>
    </pattern>
  </defs>
  <rect width="900" height="900" rx="72" fill="url(#bg)"/>
  <rect width="900" height="900" rx="72" fill="url(#grid)"/>
  <circle cx="237" cy="222" r="115" fill="#2563eb" opacity=".18"/>
  <circle cx="698" cy="262" r="155" fill="#60a5fa" opacity=".14"/>
  <path d="M287 705c70-48 150-48 220 0" stroke="#f97316" stroke-width="24" stroke-linecap="round" opacity=".34" fill="none"/>
  <path d="M683 150c44 40 92 40 136 0" stroke="#2563eb" stroke-width="20" stroke-linecap="round" opacity=".38" fill="none"/>
  <circle cx="287" cy="687" r="25" fill="#f97316" opacity=".22"/>
  <circle cx="683" cy="617" r="37" fill="#60a5fa" opacity=".25"/>
  <rect x="187" y="337" width="58" height="58" rx="18" fill="#fff" opacity=".48"/>
  <rect x="623" y="578" width="72" height="72" rx="24" fill="#fff" opacity=".36"/>
  <g transform="translate(0 14) rotate(-6 450 450) scale(0.9560000000000001) translate(19.79999999999997 19.79999999999997)">
    <rect x="300" y="230" width="300" height="430" rx="52" fill="#18181b"/><path d="M385 225v-45h130v45M380 310v260M450 310v260M520 310v260" stroke="#18181b" stroke-width="18" stroke-linecap="round" stroke-linejoin="round" fill="none"/><circle cx="370" cy="705" r="30" fill="#f97316"/><circle cx="530" cy="705" r="30" fill="#f97316"/>
  </g>
</svg>
