<svg xmlns="http://www.w3.org/2000/svg" width="900" height="900" viewBox="0 0 900 900" role="img" aria-label="FlexiSpot E7 Pro product visual">
  <defs>
    <linearGradient id="bg" x1="0" x2="1" y1="0" y2="1">
      <stop offset="0" stop-color="#eff6ff"/>
      <stop offset=".62" stop-color="#ffffff"/>
      <stop offset="1" stop-color="#facc15" stop-opacity=".22"/>
    </linearGradient>
    <pattern id="grid" width="48" height="48" patternUnits="userSpaceOnUse">
      <path d="M48 0H0v48" fill="none" stroke="#172554" stroke-opacity=".06" stroke-width="2"/>
    </pattern>
  </defs>
  <rect width="900" height="900" rx="72" fill="url(#bg)"/>
  <rect width="900" height="900" rx="72" fill="url(#grid)"/>
  <circle cx="230" cy="175" r="115" fill="#10b981" opacity=".18"/>
  <circle cx="665" cy="295" r="155" fill="#2dd4bf" opacity=".14"/>
  <path d="M190 705c70-48 150-48 220 0" stroke="#facc15" stroke-width="24" stroke-linecap="round" opacity=".34" fill="none"/>
  <path d="M630 150c44 40 92 40 136 0" stroke="#10b981" stroke-width="20" stroke-linecap="round" opacity=".38" fill="none"/>
  <circle cx="190" cy="620" r="26" fill="#facc15" opacity=".22"/>
  <circle cx="630" cy="550" r="30" fill="#2dd4bf" opacity=".25"/>
  <rect x="140" y="320" width="58" height="58" rx="18" fill="#fff" opacity=".48"/>
  <rect x="690" y="585" width="72" height="72" rx="24" fill="#fff" opacity=".36"/>
  <g transform="translate(0 14) rotate(3 450 450) scale(0.9680000000000001) translate(14.399999999999963 14.399999999999963)">
    <rect x="185" y="350" width="530" height="64" rx="22" fill="#172554"/><path d="M270 414v220M630 414v220" stroke="#172554" stroke-width="18" stroke-linecap="round" stroke-linejoin="round" fill="none"/><rect x="350" y="220" width="200" height="118" rx="18" fill="#fff" opacity=".9"/><path d="M395 338h110" stroke="#172554" stroke-width="18" stroke-linecap="round" stroke-linejoin="round" fill="none"/>
  </g>
</svg>
