<svg xmlns="http://www.w3.org/2000/svg" width="900" height="900" viewBox="0 0 900 900" role="img" aria-label="Beats Powerbeats Pro 2 product visual">
  <defs>
    <linearGradient id="bg" x1="0" x2="1" y1="0" y2="1">
      <stop offset="0" stop-color="#fff7ed"/>
      <stop offset=".62" stop-color="#ffffff"/>
      <stop offset="1" stop-color="#f97316" stop-opacity=".22"/>
    </linearGradient>
    <pattern id="grid" width="48" height="48" patternUnits="userSpaceOnUse">
      <path d="M48 0H0v48" fill="none" stroke="#18181b" stroke-opacity=".06" stroke-width="2"/>
    </pattern>
  </defs>
  <rect width="900" height="900" rx="72" fill="url(#bg)"/>
  <rect width="900" height="900" rx="72" fill="url(#grid)"/>
  <circle cx="237" cy="182" r="115" fill="#2563eb" opacity=".18"/>
  <circle cx="678" cy="282" r="155" fill="#60a5fa" opacity=".14"/>
  <path d="M227 705c70-48 150-48 220 0" stroke="#f97316" stroke-width="24" stroke-linecap="round" opacity=".34" fill="none"/>
  <path d="M553 150c44 40 92 40 136 0" stroke="#2563eb" stroke-width="20" stroke-linecap="round" opacity=".38" fill="none"/>
  <circle cx="227" cy="687" r="49" fill="#f97316" opacity=".22"/>
  <circle cx="553" cy="617" r="37" fill="#60a5fa" opacity=".25"/>
  <rect x="147" y="357" width="58" height="58" rx="18" fill="#fff" opacity=".48"/>
  <rect x="623" y="578" width="72" height="72" rx="24" fill="#fff" opacity=".36"/>
  <g transform="translate(0 14) rotate(-1 450 450) scale(0.992) translate(3.600000000000003 3.600000000000003)">
    <path d="M280 500v-92c0-120 76-202 170-202s170 82 170 202v92" stroke="#18181b" stroke-width="18" stroke-linecap="round" stroke-linejoin="round" fill="none"/><rect x="215" y="470" width="108" height="180" rx="42" fill="#18181b"/><rect x="577" y="470" width="108" height="180" rx="42" fill="#18181b"/><path d="M345 660c70 42 140 42 210 0" stroke="#18181b" stroke-width="18" stroke-linecap="round" stroke-linejoin="round" fill="none"/>
  </g>
</svg>
