<svg xmlns="http://www.w3.org/2000/svg" width="900" height="900" viewBox="0 0 900 900" role="img" aria-label="Shokz OpenRun Pro 2 product visual">
  <defs>
    <linearGradient id="bg" x1="0" x2="1" y1="0" y2="1">
      <stop offset="0" stop-color="#f8fafc"/>
      <stop offset=".62" stop-color="#ffffff"/>
      <stop offset="1" stop-color="#38bdf8" stop-opacity=".22"/>
    </linearGradient>
    <pattern id="grid" width="48" height="48" patternUnits="userSpaceOnUse">
      <path d="M48 0H0v48" fill="none" stroke="#111827" stroke-opacity=".06" stroke-width="2"/>
    </pattern>
  </defs>
  <rect width="900" height="900" rx="72" fill="url(#bg)"/>
  <rect width="900" height="900" rx="72" fill="url(#grid)"/>
  <circle cx="267" cy="172" r="115" fill="#fb7185" opacity=".18"/>
  <circle cx="628" cy="332" r="155" fill="#facc15" opacity=".14"/>
  <path d="M167 705c70-48 150-48 220 0" stroke="#38bdf8" stroke-width="24" stroke-linecap="round" opacity=".34" fill="none"/>
  <path d="M563 150c44 40 92 40 136 0" stroke="#fb7185" stroke-width="20" stroke-linecap="round" opacity=".38" fill="none"/>
  <circle cx="167" cy="687" r="31" fill="#38bdf8" opacity=".22"/>
  <circle cx="563" cy="617" r="19" fill="#facc15" opacity=".25"/>
  <rect x="137" y="357" width="58" height="58" rx="18" fill="#fff" opacity=".48"/>
  <rect x="623" y="548" width="72" height="72" rx="24" fill="#fff" opacity=".36"/>
  <g transform="translate(0 14) rotate(4 450 450) scale(0.9440000000000001) translate(25.19999999999997 25.19999999999997)">
    <path d="M280 500v-92c0-120 76-202 170-202s170 82 170 202v92" stroke="#111827" stroke-width="18" stroke-linecap="round" stroke-linejoin="round" fill="none"/><rect x="215" y="470" width="108" height="180" rx="42" fill="#111827"/><rect x="577" y="470" width="108" height="180" rx="42" fill="#111827"/><path d="M345 660c70 42 140 42 210 0" stroke="#111827" stroke-width="18" stroke-linecap="round" stroke-linejoin="round" fill="none"/>
  </g>
</svg>
