<svg xmlns="http://www.w3.org/2000/svg" width="900" height="900" viewBox="0 0 900 900" role="img" aria-label="OOFOS OOahh Slide product visual">
  <defs>
    <linearGradient id="bg" x1="0" x2="1" y1="0" y2="1">
      <stop offset="0" stop-color="#ecfeff"/>
      <stop offset=".62" stop-color="#ffffff"/>
      <stop offset="1" stop-color="#22c55e" stop-opacity=".22"/>
    </linearGradient>
    <pattern id="grid" width="48" height="48" patternUnits="userSpaceOnUse">
      <path d="M48 0H0v48" fill="none" stroke="#0f172a" stroke-opacity=".06" stroke-width="2"/>
    </pattern>
  </defs>
  <rect width="900" height="900" rx="72" fill="url(#bg)"/>
  <rect width="900" height="900" rx="72" fill="url(#grid)"/>
  <circle cx="178" cy="203" r="115" fill="#f59e0b" opacity=".18"/>
  <circle cx="657" cy="303" r="155" fill="#f97316" opacity=".14"/>
  <path d="M228 705c70-48 150-48 220 0" stroke="#22c55e" stroke-width="24" stroke-linecap="round" opacity=".34" fill="none"/>
  <path d="M612 150c44 40 92 40 136 0" stroke="#f59e0b" stroke-width="20" stroke-linecap="round" opacity=".38" fill="none"/>
  <circle cx="228" cy="658" r="22" fill="#22c55e" opacity=".22"/>
  <circle cx="612" cy="588" r="26" fill="#f97316" opacity=".25"/>
  <rect x="168" y="328" width="58" height="58" rx="18" fill="#fff" opacity=".48"/>
  <rect x="652" y="577" width="72" height="72" rx="24" fill="#fff" opacity=".36"/>
  <g transform="translate(0 14) rotate(1 450 450) scale(0.92) translate(35.99999999999998 35.99999999999998)">
    <path d="M245 525c70-110 165-162 285-155 85 5 145 55 130 122-22 98-140 170-292 180-88 6-150-12-123-147Z" fill="#0f172a"/><path d="M370 405c35 75 78 125 160 175M420 395c-12 85-55 135-140 150" stroke="#0f172a" stroke-width="18" stroke-linecap="round" stroke-linejoin="round" fill="none"/><circle cx="535" cy="470" r="30" fill="#22c55e"/>
  </g>
</svg>
