<svg xmlns="http://www.w3.org/2000/svg" width="900" height="900" viewBox="0 0 900 900" role="img" aria-label="Leki Ultratrail FX.One Superlite product visual">
  <defs>
    <linearGradient id="bg" x1="0" x2="1" y1="0" y2="1">
      <stop offset="0" stop-color="#f8fafc"/>
      <stop offset=".62" stop-color="#ffffff"/>
      <stop offset="1" stop-color="#38bdf8" stop-opacity=".22"/>
    </linearGradient>
    <pattern id="grid" width="48" height="48" patternUnits="userSpaceOnUse">
      <path d="M48 0H0v48" fill="none" stroke="#111827" stroke-opacity=".06" stroke-width="2"/>
    </pattern>
  </defs>
  <rect width="900" height="900" rx="72" fill="url(#bg)"/>
  <rect width="900" height="900" rx="72" fill="url(#grid)"/>
  <circle cx="219" cy="204" r="115" fill="#fb7185" opacity=".18"/>
  <circle cx="696" cy="264" r="155" fill="#facc15" opacity=".14"/>
  <g transform="translate(0 -36)">
    <path d="M325 165l-80 570M575 165l80 570" stroke="#111827" stroke-width="18" stroke-linecap="round" stroke-linejoin="round" fill="none"/><path d="M280 280h90M530 280h90M230 735h120M550 735h120" stroke="#111827" stroke-width="18" stroke-linecap="round" stroke-linejoin="round" fill="none"/><circle cx="325" cy="165" r="38" fill="#38bdf8"/><circle cx="575" cy="165" r="38" fill="#38bdf8"/>
  </g>
  <rect x="238" y="651" width="424" height="106" rx="34" fill="#fff" opacity=".68"/>
  <text x="450" y="705" text-anchor="middle" font-size="38" font-weight="800" fill="#111827">Leki Ultratrail</text><text x="450" y="747" text-anchor="middle" font-size="38" font-weight="800" fill="#111827">FX.One Superlite</text>
  <text x="450" y="820" text-anchor="middle" font-size="22" font-weight="700" fill="#111827" opacity=".72">Best Trail Running Poles</text>
</svg>
