<svg xmlns="http://www.w3.org/2000/svg" width="900" height="900" viewBox="0 0 900 900" role="img" aria-label="Jabra Elite 8 Active Gen 2 product visual">
  <defs>
    <linearGradient id="bg" x1="0" x2="1" y1="0" y2="1">
      <stop offset="0" stop-color="#f8fafc"/>
      <stop offset=".62" stop-color="#ffffff"/>
      <stop offset="1" stop-color="#38bdf8" stop-opacity=".22"/>
    </linearGradient>
    <pattern id="grid" width="48" height="48" patternUnits="userSpaceOnUse">
      <path d="M48 0H0v48" fill="none" stroke="#111827" stroke-opacity=".06" stroke-width="2"/>
    </pattern>
  </defs>
  <rect width="900" height="900" rx="72" fill="url(#bg)"/>
  <rect width="900" height="900" rx="72" fill="url(#grid)"/>
  <circle cx="275" cy="220" r="115" fill="#fb7185" opacity=".18"/>
  <circle cx="720" cy="240" r="155" fill="#facc15" opacity=".14"/>
  <g transform="translate(0 -36)">
    <path d="M280 500v-92c0-120 76-202 170-202s170 82 170 202v92" stroke="#111827" stroke-width="18" stroke-linecap="round" stroke-linejoin="round" fill="none"/><rect x="215" y="470" width="108" height="180" rx="42" fill="#111827"/><rect x="577" y="470" width="108" height="180" rx="42" fill="#111827"/><path d="M345 660c70 42 140 42 210 0" stroke="#111827" stroke-width="18" stroke-linecap="round" stroke-linejoin="round" fill="none"/>
  </g>
  <rect x="238" y="651" width="424" height="106" rx="34" fill="#fff" opacity=".68"/>
  <text x="450" y="705" text-anchor="middle" font-size="38" font-weight="800" fill="#111827">Jabra Elite 8 Active</text><text x="450" y="747" text-anchor="middle" font-size="38" font-weight="800" fill="#111827">Gen 2</text>
  <text x="450" y="820" text-anchor="middle" font-size="22" font-weight="700" fill="#111827" opacity=".72">Best Running Headphones</text>
</svg>
