<svg xmlns="http://www.w3.org/2000/svg" width="900" height="900" viewBox="0 0 900 900" role="img" aria-label="HOKA Ora Recovery Slide 3 product visual">
  <defs>
    <linearGradient id="bg" x1="0" x2="1" y1="0" y2="1">
      <stop offset="0" stop-color="#ecfdf5"/>
      <stop offset=".62" stop-color="#ffffff"/>
      <stop offset="1" stop-color="#60a5fa" stop-opacity=".22"/>
    </linearGradient>
    <pattern id="grid" width="48" height="48" patternUnits="userSpaceOnUse">
      <path d="M48 0H0v48" fill="none" stroke="#064e3b" stroke-opacity=".06" stroke-width="2"/>
    </pattern>
  </defs>
  <rect width="900" height="900" rx="72" fill="url(#bg)"/>
  <rect width="900" height="900" rx="72" fill="url(#grid)"/>
  <circle cx="272" cy="217" r="115" fill="#f97316" opacity=".18"/>
  <circle cx="703" cy="257" r="155" fill="#38bdf8" opacity=".14"/>
  <path d="M142 705c70-48 150-48 220 0" stroke="#60a5fa" stroke-width="24" stroke-linecap="round" opacity=".34" fill="none"/>
  <path d="M538 150c44 40 92 40 136 0" stroke="#f97316" stroke-width="20" stroke-linecap="round" opacity=".38" fill="none"/>
  <circle cx="142" cy="632" r="48" fill="#60a5fa" opacity=".22"/>
  <circle cx="538" cy="562" r="24" fill="#38bdf8" opacity=".25"/>
  <rect x="182" y="332" width="58" height="58" rx="18" fill="#fff" opacity=".48"/>
  <rect x="678" y="543" width="72" height="72" rx="24" fill="#fff" opacity=".36"/>
  <g transform="translate(0 14) rotate(2 450 450) scale(0.98) translate(9.000000000000007 9.000000000000007)">
    <path d="M245 525c70-110 165-162 285-155 85 5 145 55 130 122-22 98-140 170-292 180-88 6-150-12-123-147Z" fill="#064e3b"/><path d="M370 405c35 75 78 125 160 175M420 395c-12 85-55 135-140 150" stroke="#064e3b" stroke-width="18" stroke-linecap="round" stroke-linejoin="round" fill="none"/><circle cx="535" cy="470" r="30" fill="#60a5fa"/>
  </g>
</svg>
