<svg xmlns="http://www.w3.org/2000/svg" width="900" height="900" viewBox="0 0 900 900" role="img" aria-label="Branch Ergonomic Chair Pro product visual">
  <defs>
    <linearGradient id="bg" x1="0" x2="1" y1="0" y2="1">
      <stop offset="0" stop-color="#fafafa"/>
      <stop offset=".62" stop-color="#ffffff"/>
      <stop offset="1" stop-color="#2dd4bf" stop-opacity=".22"/>
    </linearGradient>
    <pattern id="grid" width="48" height="48" patternUnits="userSpaceOnUse">
      <path d="M48 0H0v48" fill="none" stroke="#3f3f46" stroke-opacity=".06" stroke-width="2"/>
    </pattern>
  </defs>
  <rect width="900" height="900" rx="72" fill="url(#bg)"/>
  <rect width="900" height="900" rx="72" fill="url(#grid)"/>
  <circle cx="225" cy="170" r="115" fill="#a855f7" opacity=".18"/>
  <circle cx="630" cy="330" r="155" fill="#a3e635" opacity=".14"/>
  <path d="M245 705c70-48 150-48 220 0" stroke="#2dd4bf" stroke-width="24" stroke-linecap="round" opacity=".34" fill="none"/>
  <path d="M575 150c44 40 92 40 136 0" stroke="#a855f7" stroke-width="20" stroke-linecap="round" opacity=".38" fill="none"/>
  <circle cx="245" cy="645" r="25" fill="#2dd4bf" opacity=".22"/>
  <circle cx="575" cy="575" r="25" fill="#a3e635" opacity=".25"/>
  <rect x="135" y="355" width="58" height="58" rx="18" fill="#fff" opacity=".48"/>
  <rect x="665" y="530" width="72" height="72" rx="24" fill="#fff" opacity=".36"/>
  <g transform="translate(0 14) rotate(4 450 450) scale(0.9560000000000001) translate(19.79999999999997 19.79999999999997)">
    <rect x="315" y="225" width="270" height="260" rx="72" fill="#3f3f46"/><rect x="295" y="470" width="310" height="98" rx="42" fill="#2dd4bf"/><path d="M450 568v92M360 695h180M325 750h250" stroke="#3f3f46" stroke-width="18" stroke-linecap="round" stroke-linejoin="round" fill="none"/>
  </g>
</svg>
