<svg xmlns="http://www.w3.org/2000/svg" width="900" height="900" viewBox="0 0 900 900" role="img" aria-label="Logitech MX Brio product visual">
  <defs>
    <linearGradient id="bg" x1="0" x2="1" y1="0" y2="1">
      <stop offset="0" stop-color="#ecfeff"/>
      <stop offset=".62" stop-color="#ffffff"/>
      <stop offset="1" stop-color="#22c55e" stop-opacity=".22"/>
    </linearGradient>
    <pattern id="grid" width="48" height="48" patternUnits="userSpaceOnUse">
      <path d="M48 0H0v48" fill="none" stroke="#0f172a" stroke-opacity=".06" stroke-width="2"/>
    </pattern>
  </defs>
  <rect width="900" height="900" rx="72" fill="url(#bg)"/>
  <rect width="900" height="900" rx="72" fill="url(#grid)"/>
  <circle cx="178" cy="203" r="115" fill="#f59e0b" opacity=".18"/>
  <circle cx="717" cy="243" r="155" fill="#f97316" opacity=".14"/>
  <path d="M228 705c70-48 150-48 220 0" stroke="#22c55e" stroke-width="24" stroke-linecap="round" opacity=".34" fill="none"/>
  <path d="M672 150c44 40 92 40 136 0" stroke="#f59e0b" stroke-width="20" stroke-linecap="round" opacity=".38" fill="none"/>
  <circle cx="228" cy="688" r="22" fill="#22c55e" opacity=".22"/>
  <circle cx="672" cy="618" r="26" fill="#f97316" opacity=".25"/>
  <rect x="168" y="318" width="58" height="58" rx="18" fill="#fff" opacity=".48"/>
  <rect x="622" y="577" width="72" height="72" rx="24" fill="#fff" opacity=".36"/>
  <g transform="translate(0 14) rotate(-6 450 450) scale(0.92) translate(35.99999999999998 35.99999999999998)">
    <rect x="185" y="350" width="530" height="64" rx="22" fill="#0f172a"/><path d="M270 414v220M630 414v220" stroke="#0f172a" stroke-width="18" stroke-linecap="round" stroke-linejoin="round" fill="none"/><rect x="350" y="220" width="200" height="118" rx="18" fill="#fff" opacity=".9"/><path d="M395 338h110" stroke="#0f172a" stroke-width="18" stroke-linecap="round" stroke-linejoin="round" fill="none"/>
  </g>
</svg>
