<svg xmlns="http://www.w3.org/2000/svg" width="900" height="900" viewBox="0 0 900 900" role="img" aria-label="Lifestyle section visual">
  <defs>
    <linearGradient id="bg" x1="0" x2="1" y1="0" y2="1">
      <stop offset="0" stop-color="#ecfdf5"/>
      <stop offset=".62" stop-color="#ffffff"/>
      <stop offset="1" stop-color="#60a5fa" stop-opacity=".22"/>
    </linearGradient>
    <pattern id="grid" width="48" height="48" patternUnits="userSpaceOnUse">
      <path d="M48 0H0v48" fill="none" stroke="#064e3b" stroke-opacity=".06" stroke-width="2"/>
    </pattern>
  </defs>
  <rect width="900" height="900" rx="72" fill="url(#bg)"/>
  <rect width="900" height="900" rx="72" fill="url(#grid)"/>
  <circle cx="208" cy="233" r="115" fill="#f97316" opacity=".18"/>
  <circle cx="687" cy="273" r="155" fill="#38bdf8" opacity=".14"/>
  <path d="M168 705c70-48 150-48 220 0" stroke="#60a5fa" stroke-width="24" stroke-linecap="round" opacity=".34" fill="none"/>
  <path d="M632 150c44 40 92 40 136 0" stroke="#f97316" stroke-width="20" stroke-linecap="round" opacity=".38" fill="none"/>
  <circle cx="168" cy="628" r="32" fill="#60a5fa" opacity=".22"/>
  <circle cx="632" cy="558" r="32" fill="#38bdf8" opacity=".25"/>
  <rect x="198" y="348" width="58" height="58" rx="18" fill="#fff" opacity=".48"/>
  <rect x="682" y="547" width="72" height="72" rx="24" fill="#fff" opacity=".36"/>
  <g transform="translate(0 14) rotate(2 450 450) scale(0.9560000000000001) translate(19.79999999999997 19.79999999999997)">
    <rect x="250" y="250" width="400" height="400" rx="88" fill="#064e3b"/><circle cx="450" cy="450" r="112" fill="#fff" opacity=".86"/><path d="M365 455h170M450 370v170" stroke="#064e3b" stroke-width="18" stroke-linecap="round" stroke-linejoin="round" fill="none"/>
  </g>
</svg>
