<svg xmlns="http://www.w3.org/2000/svg" width="900" height="900" viewBox="0 0 900 900" role="img" aria-label="Coffee Maker Features That Actually Matter support visual">
  <defs>
    <linearGradient id="bg" x1="0" x2="1" y1="0" y2="1">
      <stop offset="0" stop-color="#ecfeff"/>
      <stop offset=".62" stop-color="#ffffff"/>
      <stop offset="1" stop-color="#22c55e" stop-opacity=".22"/>
    </linearGradient>
    <pattern id="grid" width="48" height="48" patternUnits="userSpaceOnUse">
      <path d="M48 0H0v48" fill="none" stroke="#0f172a" stroke-opacity=".06" stroke-width="2"/>
    </pattern>
  </defs>
  <rect width="900" height="900" rx="72" fill="url(#bg)"/>
  <rect width="900" height="900" rx="72" fill="url(#grid)"/>
  <circle cx="282" cy="187" r="115" fill="#f59e0b" opacity=".18"/>
  <circle cx="653" cy="307" r="155" fill="#f97316" opacity=".14"/>
  <path d="M332 705c70-48 150-48 220 0" stroke="#22c55e" stroke-width="24" stroke-linecap="round" opacity=".34" fill="none"/>
  <path d="M658 150c44 40 92 40 136 0" stroke="#f59e0b" stroke-width="20" stroke-linecap="round" opacity=".38" fill="none"/>
  <circle cx="332" cy="672" r="42" fill="#22c55e" opacity=".22"/>
  <circle cx="658" cy="602" r="34" fill="#f97316" opacity=".25"/>
  <rect x="152" y="332" width="58" height="58" rx="18" fill="#fff" opacity=".48"/>
  <rect x="638" y="533" width="72" height="72" rx="24" fill="#fff" opacity=".36"/>
  <g transform="translate(0 14) rotate(6 450 450) scale(0.992) translate(3.600000000000003 3.600000000000003)">
    <rect x="175" y="300" width="550" height="320" rx="64" fill="#0f172a"/><rect x="245" y="365" width="210" height="135" rx="24" fill="#fff" opacity=".88"/><circle cx="580" cy="430" r="78" fill="#22c55e"/><path d="M270 565h360" stroke="#0f172a" stroke-width="18" stroke-linecap="round" stroke-linejoin="round" fill="none"/>
  </g>
</svg>
